{
 "cells": [
  {
   "cell_type": "code",
   "execution_count": null,
   "metadata": {},
   "outputs": [],
   "source": [
    "from pathlib import Path\n",
    "from mido import MidiFile, Message"
   ]
  },
  {
   "cell_type": "code",
   "execution_count": 6,
   "metadata": {},
   "outputs": [],
   "source": [
    "rest_times = {}\n",
    "for file in Path(\"alvinwong\").iterdir():\n",
    "    mid = MidiFile(file)\n",
    "    t = [0]\n",
    "    for msg in mid.tracks[0]:\n",
    "        if msg.type == 'time_signature':\n",
    "            if msg.time > 0:\n",
    "                t.append(msg.time)\n",
    "\n",
    "    if max(t) > 200:\n",
    "        rest_times[file] = max(t)"
   ]
  },
  {
   "cell_type": "code",
   "execution_count": 41,
   "metadata": {},
   "outputs": [],
   "source": [
    "def add_rest_notes(file, time):\n",
    "    # add rest notes (as dummy middle C)\n",
    "    mid = MidiFile(file)\n",
    "    mid.tracks[0].insert(-1, Message(\"note_on\", note=60, velocity=0, time=time))\n",
    "    mid.save(file)"
   ]
  },
  {
   "cell_type": "code",
   "execution_count": null,
   "metadata": {},
   "outputs": [],
   "source": [
    "for file, time in rest_times.items():\n",
    "    file = Path(\"alvinwong_piano_ai\").joinpath(file.name)\n",
    "    add_rest_notes(file, time)"
   ]
  },
  {
   "cell_type": "code",
   "execution_count": null,
   "metadata": {},
   "outputs": [
    {
     "data": {
      "text/plain": [
       "MidiTrack([\n",
       "  MetaMessage('track_name', name='Piano\\x00', time=0),\n",
       "  MetaMessage('time_signature', numerator=4, denominator=4, clocks_per_click=24, notated_32nd_notes_per_beat=8, time=0),\n",
       "  MetaMessage('key_signature', key='Eb', time=0),\n",
       "  MetaMessage('set_tempo', tempo=521739, time=0),\n",
       "  Message('control_change', channel=0, control=121, value=0, time=0),\n",
       "  Message('program_change', channel=0, program=0, time=0),\n",
       "  Message('control_change', channel=0, control=7, value=100, time=0),\n",
       "  Message('control_change', channel=0, control=10, value=64, time=0),\n",
       "  Message('control_change', channel=0, control=91, value=0, time=0),\n",
       "  Message('control_change', channel=0, control=93, value=0, time=0),\n",
       "  MetaMessage('midi_port', port=0, time=0),\n",
       "  Message('note_on', channel=0, note=70, velocity=80, time=0),\n",
       "  Message('note_on', channel=0, note=67, velocity=80, time=0),\n",
       "  Message('note_on', channel=0, note=70, velocity=0, time=911),\n",
       "  Message('note_on', channel=0, note=67, velocity=0, time=0),\n",
       "  Message('note_on', channel=0, note=70, velocity=80, time=49),\n",
       "  Message('note_on', channel=0, note=65, velocity=80, time=0),\n",
       "  Message('note_on', channel=0, note=70, velocity=0, time=683),\n",
       "  Message('note_on', channel=0, note=65, velocity=0, time=0),\n",
       "  Message('note_on', channel=0, note=70, velocity=80, time=37),\n",
       "  Message('note_on', channel=0, note=65, velocity=80, time=0),\n",
       "  Message('note_on', channel=0, note=70, velocity=0, time=227),\n",
       "  Message('note_on', channel=0, note=65, velocity=0, time=0),\n",
       "  Message('note_on', channel=0, note=75, velocity=80, time=13),\n",
       "  Message('note_on', channel=0, note=63, velocity=80, time=0),\n",
       "  Message('note_on', channel=0, note=75, velocity=0, time=911),\n",
       "  Message('note_on', channel=0, note=63, velocity=0, time=0),\n",
       "  Message('note_on', channel=0, note=68, velocity=80, time=49),\n",
       "  Message('note_on', channel=0, note=63, velocity=80, time=0),\n",
       "  Message('note_on', channel=0, note=68, velocity=0, time=455),\n",
       "  Message('note_on', channel=0, note=63, velocity=0, time=0),\n",
       "  Message('note_on', channel=0, note=68, velocity=80, time=265),\n",
       "  Message('note_on', channel=0, note=63, velocity=80, time=0),\n",
       "  Message('note_on', channel=0, note=68, velocity=0, time=227),\n",
       "  Message('note_on', channel=0, note=63, velocity=0, time=0),\n",
       "  Message('note_on', channel=0, note=68, velocity=80, time=13),\n",
       "  Message('note_on', channel=0, note=65, velocity=80, time=0),\n",
       "  Message('note_on', channel=0, note=68, velocity=0, time=455),\n",
       "  Message('note_on', channel=0, note=65, velocity=0, time=0),\n",
       "  Message('note_on', channel=0, note=67, velocity=80, time=25),\n",
       "  Message('note_on', channel=0, note=63, velocity=80, time=0),\n",
       "  Message('note_on', channel=0, note=67, velocity=0, time=455),\n",
       "  Message('note_on', channel=0, note=63, velocity=0, time=0),\n",
       "  Message('note_on', channel=0, note=65, velocity=80, time=25),\n",
       "  Message('note_on', channel=0, note=62, velocity=80, time=0),\n",
       "  Message('note_on', channel=0, note=65, velocity=0, time=455),\n",
       "  Message('note_on', channel=0, note=62, velocity=0, time=0),\n",
       "  Message('note_on', channel=0, note=63, velocity=80, time=25),\n",
       "  Message('note_on', channel=0, note=63, velocity=0, time=0),\n",
       "  Message('note_on', channel=0, note=63, velocity=80, time=0),\n",
       "  Message('note_on', channel=0, note=63, velocity=0, time=455),\n",
       "  Message('note_on', channel=0, note=70, velocity=80, time=25),\n",
       "  Message('note_on', channel=0, note=62, velocity=80, time=0),\n",
       "  Message('note_on', channel=0, note=70, velocity=0, time=683),\n",
       "  Message('note_on', channel=0, note=62, velocity=0, time=0),\n",
       "  Message('note_on', channel=0, note=68, velocity=80, time=37),\n",
       "  Message('note_on', channel=0, note=65, velocity=80, time=0),\n",
       "  Message('note_on', channel=0, note=68, velocity=0, time=227),\n",
       "  Message('note_on', channel=0, note=65, velocity=0, time=0),\n",
       "  Message('note_on', channel=0, note=67, velocity=80, time=13),\n",
       "  Message('note_on', channel=0, note=63, velocity=80, time=0),\n",
       "  Message('note_on', channel=0, note=67, velocity=0, time=683),\n",
       "  Message('note_on', channel=0, note=63, velocity=0, time=0),\n",
       "  Message('note_on', channel=0, note=67, velocity=80, time=277),\n",
       "  Message('note_on', channel=0, note=63, velocity=80, time=0),\n",
       "  Message('note_on', channel=0, note=67, velocity=0, time=911),\n",
       "  Message('note_on', channel=0, note=63, velocity=0, time=0),\n",
       "  Message('note_on', channel=0, note=67, velocity=80, time=49),\n",
       "  Message('note_on', channel=0, note=65, velocity=80, time=0),\n",
       "  Message('note_on', channel=0, note=67, velocity=0, time=683),\n",
       "  Message('note_on', channel=0, note=65, velocity=0, time=0),\n",
       "  Message('note_on', channel=0, note=67, velocity=80, time=37),\n",
       "  Message('note_on', channel=0, note=65, velocity=80, time=0),\n",
       "  Message('note_on', channel=0, note=67, velocity=0, time=227),\n",
       "  Message('note_on', channel=0, note=65, velocity=0, time=0),\n",
       "  Message('note_on', channel=0, note=72, velocity=80, time=13),\n",
       "  Message('note_on', channel=0, note=63, velocity=80, time=0),\n",
       "  Message('note_on', channel=0, note=72, velocity=0, time=911),\n",
       "  Message('note_on', channel=0, note=63, velocity=0, time=0),\n",
       "  Message('note_on', channel=0, note=65, velocity=80, time=49),\n",
       "  Message('note_on', channel=0, note=63, velocity=80, time=0),\n",
       "  Message('note_on', channel=0, note=65, velocity=0, time=455),\n",
       "  Message('note_on', channel=0, note=63, velocity=0, time=0),\n",
       "  Message('note_on', channel=0, note=67, velocity=80, time=25),\n",
       "  Message('note_on', channel=0, note=64, velocity=80, time=0),\n",
       "  Message('note_on', channel=0, note=67, velocity=0, time=341),\n",
       "  Message('note_on', channel=0, note=64, velocity=0, time=0),\n",
       "  Message('note_on', channel=0, note=67, velocity=80, time=19),\n",
       "  Message('note_on', channel=0, note=64, velocity=80, time=0),\n",
       "  Message('note_on', channel=0, note=67, velocity=0, time=113),\n",
       "  Message('note_on', channel=0, note=64, velocity=0, time=0),\n",
       "  Message('note_on', channel=0, note=68, velocity=80, time=7),\n",
       "  Message('note_on', channel=0, note=65, velocity=80, time=0),\n",
       "  Message('note_on', channel=0, note=68, velocity=0, time=455),\n",
       "  Message('note_on', channel=0, note=65, velocity=0, time=0),\n",
       "  Message('note_on', channel=0, note=67, velocity=80, time=25),\n",
       "  Message('note_on', channel=0, note=64, velocity=80, time=0),\n",
       "  Message('note_on', channel=0, note=67, velocity=0, time=455),\n",
       "  Message('note_on', channel=0, note=64, velocity=0, time=0),\n",
       "  Message('note_on', channel=0, note=65, velocity=80, time=25),\n",
       "  Message('note_on', channel=0, note=65, velocity=0, time=0),\n",
       "  Message('note_on', channel=0, note=65, velocity=80, time=0),\n",
       "  Message('note_on', channel=0, note=65, velocity=0, time=455),\n",
       "  Message('note_on', channel=0, note=63, velocity=80, time=25),\n",
       "  Message('note_on', channel=0, note=60, velocity=0, time=0),\n",
       "  Message('note_on', channel=0, note=60, velocity=0, time=0),\n",
       "  Message('note_on', channel=0, note=63, velocity=0, time=455),\n",
       "  Message('note_on', channel=0, note=72, velocity=80, time=25),\n",
       "  Message('note_on', channel=0, note=63, velocity=80, time=0),\n",
       "  Message('note_on', channel=0, note=72, velocity=0, time=683),\n",
       "  Message('note_on', channel=0, note=63, velocity=0, time=0),\n",
       "  Message('note_on', channel=0, note=70, velocity=80, time=37),\n",
       "  Message('note_on', channel=0, note=62, velocity=80, time=0),\n",
       "  Message('note_on', channel=0, note=70, velocity=0, time=227),\n",
       "  Message('note_on', channel=0, note=62, velocity=0, time=0),\n",
       "  Message('note_on', channel=0, note=70, velocity=80, time=13),\n",
       "  Message('note_on', channel=0, note=62, velocity=80, time=0),\n",
       "  Message('note_on', channel=0, note=70, velocity=0, time=911),\n",
       "  Message('note_on', channel=0, note=62, velocity=0, time=0),\n",
       "  Message('note_on', channel=0, note=70, velocity=80, time=49),\n",
       "  Message('note_on', channel=0, note=67, velocity=80, time=0),\n",
       "  Message('note_on', channel=0, note=70, velocity=0, time=911),\n",
       "  Message('note_on', channel=0, note=67, velocity=0, time=0),\n",
       "  Message('note_on', channel=0, note=70, velocity=80, time=49),\n",
       "  Message('note_on', channel=0, note=65, velocity=80, time=0),\n",
       "  Message('note_on', channel=0, note=70, velocity=0, time=683),\n",
       "  Message('note_on', channel=0, note=65, velocity=0, time=0),\n",
       "  Message('note_on', channel=0, note=70, velocity=80, time=37),\n",
       "  Message('note_on', channel=0, note=65, velocity=80, time=0),\n",
       "  Message('note_on', channel=0, note=70, velocity=0, time=227),\n",
       "  Message('note_on', channel=0, note=65, velocity=0, time=0),\n",
       "  Message('note_on', channel=0, note=75, velocity=80, time=13),\n",
       "  Message('note_on', channel=0, note=63, velocity=80, time=0),\n",
       "  Message('note_on', channel=0, note=63, velocity=0, time=479),\n",
       "  Message('note_on', channel=0, note=67, velocity=80, time=1),\n",
       "  Message('note_on', channel=0, note=67, velocity=0, time=455),\n",
       "  Message('note_on', channel=0, note=75, velocity=0, time=24),\n",
       "  Message('note_on', channel=0, note=68, velocity=80, time=1),\n",
       "  Message('note_on', channel=0, note=65, velocity=80, time=0),\n",
       "  Message('note_on', channel=0, note=68, velocity=0, time=455),\n",
       "  Message('note_on', channel=0, note=65, velocity=0, time=0),\n",
       "  Message('note_on', channel=0, note=68, velocity=80, time=265),\n",
       "  Message('note_on', channel=0, note=65, velocity=80, time=0),\n",
       "  Message('note_on', channel=0, note=68, velocity=0, time=227),\n",
       "  Message('note_on', channel=0, note=65, velocity=0, time=0),\n",
       "  Message('note_on', channel=0, note=68, velocity=80, time=13),\n",
       "  Message('note_on', channel=0, note=65, velocity=80, time=0),\n",
       "  Message('note_on', channel=0, note=68, velocity=0, time=455),\n",
       "  Message('note_on', channel=0, note=65, velocity=0, time=0),\n",
       "  Message('note_on', channel=0, note=67, velocity=80, time=25),\n",
       "  Message('note_on', channel=0, note=63, velocity=80, time=0),\n",
       "  Message('note_on', channel=0, note=67, velocity=0, time=455),\n",
       "  Message('note_on', channel=0, note=63, velocity=0, time=0),\n",
       "  Message('note_on', channel=0, note=65, velocity=80, time=25),\n",
       "  Message('note_on', channel=0, note=62, velocity=80, time=0),\n",
       "  Message('note_on', channel=0, note=65, velocity=0, time=455),\n",
       "  Message('note_on', channel=0, note=62, velocity=0, time=0),\n",
       "  Message('note_on', channel=0, note=63, velocity=80, time=25),\n",
       "  Message('note_on', channel=0, note=63, velocity=0, time=0),\n",
       "  Message('note_on', channel=0, note=63, velocity=80, time=0),\n",
       "  Message('note_on', channel=0, note=63, velocity=0, time=455),\n",
       "  Message('note_on', channel=0, note=70, velocity=80, time=25),\n",
       "  Message('note_on', channel=0, note=62, velocity=80, time=0),\n",
       "  Message('note_on', channel=0, note=70, velocity=0, time=683),\n",
       "  Message('note_on', channel=0, note=62, velocity=0, time=0),\n",
       "  Message('note_on', channel=0, note=68, velocity=80, time=37),\n",
       "  Message('note_on', channel=0, note=65, velocity=80, time=0),\n",
       "  Message('note_on', channel=0, note=68, velocity=0, time=227),\n",
       "  Message('note_on', channel=0, note=65, velocity=0, time=0),\n",
       "  Message('note_on', channel=0, note=67, velocity=80, time=13),\n",
       "  Message('note_on', channel=0, note=63, velocity=80, time=0),\n",
       "  Message('note_on', channel=0, note=67, velocity=0, time=911),\n",
       "  Message('note_on', channel=0, note=63, velocity=0, time=0),\n",
       "  Message('note_on', channel=0, note=67, velocity=80, time=49),\n",
       "  Message('note_on', channel=0, note=63, velocity=80, time=0),\n",
       "  Message('note_on', channel=0, note=67, velocity=0, time=911),\n",
       "  Message('note_on', channel=0, note=63, velocity=0, time=0),\n",
       "  Message('note_on', channel=0, note=67, velocity=80, time=49),\n",
       "  Message('note_on', channel=0, note=65, velocity=80, time=0),\n",
       "  Message('note_on', channel=0, note=67, velocity=0, time=683),\n",
       "  Message('note_on', channel=0, note=65, velocity=0, time=0),\n",
       "  Message('note_on', channel=0, note=67, velocity=80, time=37),\n",
       "  Message('note_on', channel=0, note=65, velocity=80, time=0),\n",
       "  Message('note_on', channel=0, note=67, velocity=0, time=227),\n",
       "  Message('note_on', channel=0, note=65, velocity=0, time=0),\n",
       "  Message('note_on', channel=0, note=72, velocity=80, time=13),\n",
       "  Message('note_on', channel=0, note=63, velocity=80, time=0),\n",
       "  Message('note_on', channel=0, note=72, velocity=0, time=911),\n",
       "  Message('note_on', channel=0, note=63, velocity=0, time=0),\n",
       "  Message('note_on', channel=0, note=65, velocity=80, time=49),\n",
       "  Message('note_on', channel=0, note=63, velocity=80, time=0),\n",
       "  Message('note_on', channel=0, note=65, velocity=0, time=455),\n",
       "  Message('note_on', channel=0, note=63, velocity=0, time=0),\n",
       "  Message('note_on', channel=0, note=67, velocity=80, time=25),\n",
       "  Message('note_on', channel=0, note=64, velocity=80, time=0),\n",
       "  Message('note_on', channel=0, note=67, velocity=0, time=341),\n",
       "  Message('note_on', channel=0, note=64, velocity=0, time=0),\n",
       "  Message('note_on', channel=0, note=67, velocity=80, time=19),\n",
       "  Message('note_on', channel=0, note=64, velocity=80, time=0),\n",
       "  Message('note_on', channel=0, note=67, velocity=0, time=113),\n",
       "  Message('note_on', channel=0, note=64, velocity=0, time=0),\n",
       "  Message('note_on', channel=0, note=68, velocity=80, time=7),\n",
       "  Message('note_on', channel=0, note=65, velocity=80, time=0),\n",
       "  Message('note_on', channel=0, note=68, velocity=0, time=455),\n",
       "  Message('note_on', channel=0, note=65, velocity=0, time=0),\n",
       "  Message('note_on', channel=0, note=67, velocity=80, time=25),\n",
       "  Message('note_on', channel=0, note=64, velocity=80, time=0),\n",
       "  Message('note_on', channel=0, note=67, velocity=0, time=455),\n",
       "  Message('note_on', channel=0, note=64, velocity=0, time=0),\n",
       "  Message('note_on', channel=0, note=65, velocity=80, time=25),\n",
       "  Message('note_on', channel=0, note=65, velocity=0, time=0),\n",
       "  Message('note_on', channel=0, note=65, velocity=80, time=0),\n",
       "  Message('note_on', channel=0, note=65, velocity=0, time=455),\n",
       "  Message('note_on', channel=0, note=63, velocity=80, time=25),\n",
       "  Message('note_on', channel=0, note=60, velocity=0, time=0),\n",
       "  Message('note_on', channel=0, note=60, velocity=0, time=0),\n",
       "  Message('note_on', channel=0, note=63, velocity=0, time=455),\n",
       "  Message('note_on', channel=0, note=72, velocity=80, time=25),\n",
       "  Message('note_on', channel=0, note=63, velocity=80, time=0),\n",
       "  Message('note_on', channel=0, note=72, velocity=0, time=683),\n",
       "  Message('note_on', channel=0, note=63, velocity=0, time=0),\n",
       "  Message('note_on', channel=0, note=70, velocity=80, time=37),\n",
       "  Message('note_on', channel=0, note=62, velocity=80, time=0),\n",
       "  Message('note_on', channel=0, note=70, velocity=0, time=227),\n",
       "  Message('note_on', channel=0, note=62, velocity=0, time=0),\n",
       "  Message('note_on', channel=0, note=70, velocity=80, time=13),\n",
       "  Message('note_on', channel=0, note=62, velocity=80, time=0),\n",
       "  Message('note_on', channel=0, note=70, velocity=0, time=683),\n",
       "  Message('note_on', channel=0, note=62, velocity=0, time=0),\n",
       "  Message('note_on', channel=0, note=63, velocity=80, time=277),\n",
       "  Message('note_on', channel=0, note=58, velocity=80, time=0),\n",
       "  Message('note_on', channel=0, note=63, velocity=0, time=1367),\n",
       "  Message('note_on', channel=0, note=58, velocity=0, time=0),\n",
       "  Message('note_on', channel=0, note=62, velocity=80, time=73),\n",
       "  Message('note_on', channel=0, note=58, velocity=80, time=0),\n",
       "  Message('note_on', channel=0, note=62, velocity=0, time=341),\n",
       "  Message('note_on', channel=0, note=58, velocity=0, time=0),\n",
       "  Message('note_on', channel=0, note=65, velocity=80, time=19),\n",
       "  Message('note_on', channel=0, note=58, velocity=80, time=0),\n",
       "  Message('note_on', channel=0, note=65, velocity=0, time=113),\n",
       "  Message('note_on', channel=0, note=58, velocity=0, time=0),\n",
       "  Message('note_on', channel=0, note=63, velocity=80, time=7),\n",
       "  Message('note_on', channel=0, note=58, velocity=80, time=0),\n",
       "  Message('note_on', channel=0, note=63, velocity=0, time=1367),\n",
       "  Message('note_on', channel=0, note=58, velocity=0, time=0),\n",
       "  Message('note_on', channel=0, note=63, velocity=80, time=73),\n",
       "  Message('note_on', channel=0, note=63, velocity=0, time=0),\n",
       "  Message('note_on', channel=0, note=63, velocity=80, time=0),\n",
       "  Message('note_on', channel=0, note=63, velocity=0, time=341),\n",
       "  Message('note_on', channel=0, note=65, velocity=80, time=19),\n",
       "  Message('note_on', channel=0, note=62, velocity=80, time=0),\n",
       "  Message('note_on', channel=0, note=65, velocity=0, time=113),\n",
       "  Message('note_on', channel=0, note=62, velocity=0, time=0),\n",
       "  Message('note_on', channel=0, note=67, velocity=80, time=7),\n",
       "  Message('note_on', channel=0, note=63, velocity=80, time=0),\n",
       "  Message('note_on', channel=0, note=67, velocity=0, time=455),\n",
       "  Message('note_on', channel=0, note=63, velocity=0, time=0),\n",
       "  Message('note_on', channel=0, note=68, velocity=80, time=25),\n",
       "  Message('note_on', channel=0, note=63, velocity=80, time=0),\n",
       "  Message('note_on', channel=0, note=68, velocity=0, time=455),\n",
       "  Message('note_on', channel=0, note=63, velocity=0, time=0),\n",
       "  Message('note_on', channel=0, note=70, velocity=80, time=25),\n",
       "  Message('note_on', channel=0, note=63, velocity=0, time=0),\n",
       "  Message('note_on', channel=0, note=63, velocity=0, time=0),\n",
       "  Message('note_on', channel=0, note=70, velocity=0, time=455),\n",
       "  Message('note_on', channel=0, note=72, velocity=80, time=25),\n",
       "  Message('note_on', channel=0, note=63, velocity=80, time=0),\n",
       "  Message('note_on', channel=0, note=72, velocity=0, time=455),\n",
       "  Message('note_on', channel=0, note=63, velocity=0, time=0),\n",
       "  Message('note_on', channel=0, note=65, velocity=80, time=25),\n",
       "  Message('note_on', channel=0, note=62, velocity=80, time=0),\n",
       "  Message('note_on', channel=0, note=62, velocity=0, time=479),\n",
       "  Message('note_on', channel=0, note=63, velocity=80, time=1),\n",
       "  Message('note_on', channel=0, note=63, velocity=0, time=479),\n",
       "  Message('note_on', channel=0, note=62, velocity=80, time=1),\n",
       "  Message('note_on', channel=0, note=65, velocity=0, time=227),\n",
       "  Message('note_on', channel=0, note=62, velocity=0, time=0),\n",
       "  Message('note_on', channel=0, note=68, velocity=80, time=13),\n",
       "  Message('note_on', channel=0, note=62, velocity=80, time=0),\n",
       "  Message('note_on', channel=0, note=68, velocity=0, time=227),\n",
       "  Message('note_on', channel=0, note=62, velocity=0, time=0),\n",
       "  Message('note_on', channel=0, note=65, velocity=80, time=13),\n",
       "  Message('note_on', channel=0, note=62, velocity=80, time=0),\n",
       "  Message('note_on', channel=0, note=65, velocity=0, time=227),\n",
       "  Message('note_on', channel=0, note=62, velocity=0, time=0),\n",
       "  Message('note_on', channel=0, note=67, velocity=80, time=13),\n",
       "  Message('note_on', channel=0, note=62, velocity=80, time=0),\n",
       "  Message('note_on', channel=0, note=67, velocity=0, time=227),\n",
       "  Message('note_on', channel=0, note=62, velocity=0, time=0),\n",
       "  Message('note_on', channel=0, note=63, velocity=80, time=13),\n",
       "  Message('note_on', channel=0, note=58, velocity=80, time=0),\n",
       "  Message('note_on', channel=0, note=63, velocity=0, time=1367),\n",
       "  Message('note_on', channel=0, note=58, velocity=0, time=0),\n",
       "  Message('note_on', channel=0, note=62, velocity=80, time=73),\n",
       "  Message('note_on', channel=0, note=58, velocity=80, time=0),\n",
       "  Message('note_on', channel=0, note=62, velocity=0, time=341),\n",
       "  Message('note_on', channel=0, note=58, velocity=0, time=0),\n",
       "  Message('note_on', channel=0, note=65, velocity=80, time=19),\n",
       "  Message('note_on', channel=0, note=58, velocity=80, time=0),\n",
       "  Message('note_on', channel=0, note=65, velocity=0, time=113),\n",
       "  Message('note_on', channel=0, note=58, velocity=0, time=0),\n",
       "  Message('note_on', channel=0, note=63, velocity=80, time=7),\n",
       "  Message('note_on', channel=0, note=58, velocity=80, time=0),\n",
       "  Message('note_on', channel=0, note=63, velocity=0, time=1367),\n",
       "  Message('note_on', channel=0, note=58, velocity=0, time=0),\n",
       "  Message('note_on', channel=0, note=63, velocity=80, time=73),\n",
       "  Message('note_on', channel=0, note=63, velocity=0, time=0),\n",
       "  Message('note_on', channel=0, note=63, velocity=80, time=0),\n",
       "  Message('note_on', channel=0, note=63, velocity=0, time=341),\n",
       "  Message('note_on', channel=0, note=65, velocity=80, time=19),\n",
       "  Message('note_on', channel=0, note=62, velocity=80, time=0),\n",
       "  Message('note_on', channel=0, note=65, velocity=0, time=113),\n",
       "  Message('note_on', channel=0, note=62, velocity=0, time=0),\n",
       "  Message('note_on', channel=0, note=67, velocity=80, time=7),\n",
       "  Message('note_on', channel=0, note=63, velocity=80, time=0),\n",
       "  Message('note_on', channel=0, note=67, velocity=0, time=455),\n",
       "  Message('note_on', channel=0, note=63, velocity=0, time=0),\n",
       "  Message('note_on', channel=0, note=67, velocity=80, time=25),\n",
       "  Message('note_on', channel=0, note=65, velocity=80, time=0),\n",
       "  Message('note_on', channel=0, note=67, velocity=0, time=227),\n",
       "  Message('note_on', channel=0, note=65, velocity=0, time=0),\n",
       "  Message('note_on', channel=0, note=67, velocity=80, time=13),\n",
       "  Message('note_on', channel=0, note=65, velocity=80, time=0),\n",
       "  Message('note_on', channel=0, note=67, velocity=0, time=227),\n",
       "  Message('note_on', channel=0, note=65, velocity=0, time=0),\n",
       "  Message('note_on', channel=0, note=75, velocity=80, time=13),\n",
       "  Message('note_on', channel=0, note=63, velocity=80, time=0),\n",
       "  Message('note_on', channel=0, note=75, velocity=0, time=455),\n",
       "  Message('note_on', channel=0, note=63, velocity=0, time=0),\n",
       "  Message('note_on', channel=0, note=74, velocity=80, time=25),\n",
       "  Message('note_on', channel=0, note=67, velocity=80, time=0),\n",
       "  Message('note_on', channel=0, note=74, velocity=0, time=227),\n",
       "  Message('note_on', channel=0, note=67, velocity=0, time=0),\n",
       "  Message('note_on', channel=0, note=74, velocity=80, time=13),\n",
       "  Message('note_on', channel=0, note=67, velocity=80, time=0),\n",
       "  Message('note_on', channel=0, note=74, velocity=0, time=227),\n",
       "  Message('note_on', channel=0, note=67, velocity=0, time=0),\n",
       "  Message('note_on', channel=0, note=72, velocity=80, time=13),\n",
       "  Message('note_on', channel=0, note=67, velocity=80, time=0),\n",
       "  Message('note_on', channel=0, note=67, velocity=0, time=479),\n",
       "  Message('note_on', channel=0, note=65, velocity=80, time=1),\n",
       "  Message('note_on', channel=0, note=72, velocity=0, time=239),\n",
       "  Message('note_on', channel=0, note=65, velocity=0, time=0),\n",
       "  Message('note_on', channel=0, note=74, velocity=80, time=1),\n",
       "  Message('note_on', channel=0, note=63, velocity=80, time=0),\n",
       "  Message('note_on', channel=0, note=74, velocity=0, time=227),\n",
       "  Message('note_on', channel=0, note=63, velocity=0, time=0),\n",
       "  Message('note_on', channel=0, note=70, velocity=80, time=13),\n",
       "  Message('note_on', channel=0, note=62, velocity=80, time=0),\n",
       "  Message('note_on', channel=0, note=70, velocity=0, time=911),\n",
       "  Message('note_on', channel=0, note=62, velocity=0, time=0),\n",
       "  Message('note_on', channel=0, note=65, velocity=80, time=49),\n",
       "  Message('note_on', channel=0, note=60, velocity=80, time=0),\n",
       "  Message('note_on', channel=0, note=65, velocity=0, time=1367),\n",
       "  Message('note_on', channel=0, note=60, velocity=0, time=0),\n",
       "  Message('note_on', channel=0, note=67, velocity=80, time=73),\n",
       "  Message('note_on', channel=0, note=64, velocity=80, time=0),\n",
       "  Message('note_on', channel=0, note=67, velocity=0, time=341),\n",
       "  Message('note_on', channel=0, note=64, velocity=0, time=0),\n",
       "  Message('note_on', channel=0, note=68, velocity=80, time=19),\n",
       "  Message('note_on', channel=0, note=65, velocity=80, time=0),\n",
       "  Message('note_on', channel=0, note=68, velocity=0, time=113),\n",
       "  Message('note_on', channel=0, note=65, velocity=0, time=0),\n",
       "  Message('note_on', channel=0, note=65, velocity=80, time=7),\n",
       "  Message('note_on', channel=0, note=60, velocity=80, time=0),\n",
       "  Message('note_on', channel=0, note=65, velocity=0, time=1367),\n",
       "  Message('note_on', channel=0, note=60, velocity=0, time=0),\n",
       "  Message('note_on', channel=0, note=67, velocity=80, time=73),\n",
       "  Message('note_on', channel=0, note=64, velocity=80, time=0),\n",
       "  Message('note_on', channel=0, note=67, velocity=0, time=341),\n",
       "  Message('note_on', channel=0, note=64, velocity=0, time=0),\n",
       "  Message('note_on', channel=0, note=68, velocity=80, time=19),\n",
       "  Message('note_on', channel=0, note=65, velocity=80, time=0),\n",
       "  Message('note_on', channel=0, note=68, velocity=0, time=113),\n",
       "  Message('note_on', channel=0, note=65, velocity=0, time=0),\n",
       "  Message('note_on', channel=0, note=65, velocity=80, time=7),\n",
       "  Message('note_on', channel=0, note=60, velocity=80, time=0),\n",
       "  Message('note_on', channel=0, note=65, velocity=0, time=455),\n",
       "  Message('note_on', channel=0, note=60, velocity=0, time=0),\n",
       "  Message('note_on', channel=0, note=65, velocity=80, time=25),\n",
       "  Message('note_on', channel=0, note=60, velocity=80, time=0),\n",
       "  Message('note_on', channel=0, note=65, velocity=0, time=341),\n",
       "  Message('note_on', channel=0, note=60, velocity=0, time=0),\n",
       "  Message('note_on', channel=0, note=67, velocity=80, time=19),\n",
       "  Message('note_on', channel=0, note=64, velocity=80, time=0),\n",
       "  Message('note_on', channel=0, note=67, velocity=0, time=113),\n",
       "  Message('note_on', channel=0, note=64, velocity=0, time=0),\n",
       "  Message('note_on', channel=0, note=68, velocity=80, time=7),\n",
       "  Message('note_on', channel=0, note=65, velocity=80, time=0),\n",
       "  Message('note_on', channel=0, note=68, velocity=0, time=455),\n",
       "  Message('note_on', channel=0, note=65, velocity=0, time=0),\n",
       "  Message('note_on', channel=0, note=70, velocity=80, time=25),\n",
       "  Message('note_on', channel=0, note=67, velocity=80, time=0),\n",
       "  Message('note_on', channel=0, note=70, velocity=0, time=455),\n",
       "  Message('note_on', channel=0, note=67, velocity=0, time=0),\n",
       "  Message('note_on', channel=0, note=72, velocity=80, time=25),\n",
       "  Message('note_on', channel=0, note=68, velocity=80, time=0),\n",
       "  Message('note_on', channel=0, note=72, velocity=0, time=911),\n",
       "  Message('note_on', channel=0, note=68, velocity=0, time=0),\n",
       "  Message('note_on', channel=0, note=68, velocity=80, time=49),\n",
       "  Message('note_on', channel=0, note=63, velocity=80, time=0),\n",
       "  Message('note_on', channel=0, note=68, velocity=0, time=227),\n",
       "  Message('note_on', channel=0, note=63, velocity=0, time=0),\n",
       "  Message('note_on', channel=0, note=70, velocity=80, time=253),\n",
       "  Message('note_on', channel=0, note=67, velocity=80, time=0),\n",
       "  Message('note_on', channel=0, note=70, velocity=0, time=341),\n",
       "  Message('note_on', channel=0, note=67, velocity=0, time=0),\n",
       "  Message('note_on', channel=0, note=72, velocity=80, time=19),\n",
       "  Message('note_on', channel=0, note=67, velocity=80, time=0),\n",
       "  Message('note_on', channel=0, note=72, velocity=0, time=113),\n",
       "  Message('note_on', channel=0, note=67, velocity=0, time=0),\n",
       "  Message('note_on', channel=0, note=68, velocity=80, time=7),\n",
       "  Message('note_on', channel=0, note=63, velocity=80, time=0),\n",
       "  Message('note_on', channel=0, note=68, velocity=0, time=455),\n",
       "  Message('note_on', channel=0, note=63, velocity=0, time=0),\n",
       "  Message('note_on', channel=0, note=68, velocity=80, time=25),\n",
       "  Message('note_on', channel=0, note=63, velocity=0, time=0),\n",
       "  Message('note_on', channel=0, note=63, velocity=0, time=0),\n",
       "  Message('note_on', channel=0, note=68, velocity=0, time=341),\n",
       "  Message('note_on', channel=0, note=70, velocity=80, time=19),\n",
       "  Message('note_on', channel=0, note=63, velocity=80, time=0),\n",
       "  Message('note_on', channel=0, note=70, velocity=0, time=113),\n",
       "  Message('note_on', channel=0, note=63, velocity=0, time=0),\n",
       "  Message('note_on', channel=0, note=72, velocity=80, time=7),\n",
       "  Message('note_on', channel=0, note=63, velocity=80, time=0),\n",
       "  Message('note_on', channel=0, note=72, velocity=0, time=455),\n",
       "  Message('note_on', channel=0, note=63, velocity=0, time=0),\n",
       "  Message('note_on', channel=0, note=74, velocity=80, time=25),\n",
       "  Message('note_on', channel=0, note=67, velocity=80, time=0),\n",
       "  Message('note_on', channel=0, note=74, velocity=0, time=455),\n",
       "  Message('note_on', channel=0, note=67, velocity=0, time=0),\n",
       "  Message('note_on', channel=0, note=75, velocity=80, time=25),\n",
       "  Message('note_on', channel=0, note=67, velocity=80, time=0),\n",
       "  Message('note_on', channel=0, note=75, velocity=0, time=455),\n",
       "  Message('note_on', channel=0, note=67, velocity=0, time=0),\n",
       "  Message('note_on', channel=0, note=74, velocity=80, time=25),\n",
       "  Message('note_on', channel=0, note=66, velocity=80, time=0),\n",
       "  Message('note_on', channel=0, note=74, velocity=0, time=341),\n",
       "  Message('note_on', channel=0, note=66, velocity=0, time=0),\n",
       "  Message('note_on', channel=0, note=72, velocity=80, time=19),\n",
       "  Message('note_on', channel=0, note=66, velocity=80, time=0),\n",
       "  Message('note_on', channel=0, note=72, velocity=0, time=113),\n",
       "  Message('note_on', channel=0, note=66, velocity=0, time=0),\n",
       "  Message('note_on', channel=0, note=70, velocity=80, time=7),\n",
       "  Message('note_on', channel=0, note=67, velocity=80, time=0),\n",
       "  Message('note_on', channel=0, note=70, velocity=0, time=455),\n",
       "  Message('note_on', channel=0, note=67, velocity=0, time=0),\n",
       "  Message('note_on', channel=0, note=79, velocity=80, time=25),\n",
       "  Message('note_on', channel=0, note=70, velocity=80, time=0),\n",
       "  Message('note_on', channel=0, note=79, velocity=0, time=455),\n",
       "  Message('note_on', channel=0, note=70, velocity=0, time=0),\n",
       "  Message('note_on', channel=0, note=77, velocity=80, time=25),\n",
       "  Message('note_on', channel=0, note=70, velocity=80, time=0),\n",
       "  Message('note_on', channel=0, note=77, velocity=0, time=683),\n",
       "  Message('note_on', channel=0, note=70, velocity=0, time=0),\n",
       "  Message('note_on', channel=0, note=70, velocity=80, time=37),\n",
       "  Message('note_on', channel=0, note=65, velocity=80, time=0),\n",
       "  Message('note_on', channel=0, note=70, velocity=0, time=227),\n",
       "  Message('note_on', channel=0, note=65, velocity=0, time=0),\n",
       "  Message('note_on', channel=0, note=74, velocity=80, time=13),\n",
       "  Message('note_on', channel=0, note=65, velocity=80, time=0),\n",
       "  Message('note_on', channel=0, note=74, velocity=0, time=455),\n",
       "  Message('note_on', channel=0, note=65, velocity=0, time=0),\n",
       "  Message('note_on', channel=0, note=72, velocity=80, time=25),\n",
       "  Message('note_on', channel=0, note=63, velocity=80, time=0),\n",
       "  Message('note_on', channel=0, note=72, velocity=0, time=341),\n",
       "  Message('note_on', channel=0, note=63, velocity=0, time=0),\n",
       "  Message('note_on', channel=0, note=74, velocity=80, time=19),\n",
       "  Message('note_on', channel=0, note=63, velocity=80, time=0),\n",
       "  Message('note_on', channel=0, note=74, velocity=0, time=113),\n",
       "  Message('note_on', channel=0, note=63, velocity=0, time=0),\n",
       "  Message('note_on', channel=0, note=72, velocity=80, time=7),\n",
       "  Message('note_on', channel=0, note=63, velocity=80, time=0),\n",
       "  Message('note_on', channel=0, note=72, velocity=0, time=911),\n",
       "  Message('note_on', channel=0, note=63, velocity=0, time=0),\n",
       "  Message('note_on', channel=0, note=70, velocity=80, time=49),\n",
       "  Message('note_on', channel=0, note=62, velocity=80, time=0),\n",
       "  Message('note_on', channel=0, note=70, velocity=0, time=911),\n",
       "  Message('note_on', channel=0, note=62, velocity=0, time=0),\n",
       "  Message('note_on', channel=0, note=63, velocity=80, time=49),\n",
       "  Message('note_on', channel=0, note=63, velocity=0, time=0),\n",
       "  Message('note_on', channel=0, note=63, velocity=80, time=0),\n",
       "  Message('note_on', channel=0, note=63, velocity=0, time=911),\n",
       "  Message('note_on', channel=0, note=58, velocity=80, time=49),\n",
       "  Message('note_on', channel=0, note=58, velocity=0, time=0),\n",
       "  Message('note_on', channel=0, note=58, velocity=80, time=0),\n",
       "  Message('note_on', channel=0, note=58, velocity=0, time=455),\n",
       "  Message('note_on', channel=0, note=63, velocity=80, time=25),\n",
       "  Message('note_on', channel=0, note=63, velocity=0, time=0),\n",
       "  Message('note_on', channel=0, note=63, velocity=80, time=0),\n",
       "  Message('note_on', channel=0, note=63, velocity=0, time=341),\n",
       "  Message('note_on', channel=0, note=65, velocity=80, time=19),\n",
       "  Message('note_on', channel=0, note=65, velocity=0, time=0),\n",
       "  Message('note_on', channel=0, note=65, velocity=80, time=0),\n",
       "  Message('note_on', channel=0, note=65, velocity=0, time=113),\n",
       "  Message('note_on', channel=0, note=67, velocity=80, time=7),\n",
       "  Message('note_on', channel=0, note=67, velocity=0, time=0),\n",
       "  Message('note_on', channel=0, note=67, velocity=80, time=0),\n",
       "  Message('note_on', channel=0, note=67, velocity=0, time=911),\n",
       "  Message('note_on', channel=0, note=63, velocity=80, time=49),\n",
       "  Message('note_on', channel=0, note=63, velocity=0, time=0),\n",
       "  Message('note_on', channel=0, note=63, velocity=80, time=0),\n",
       "  Message('note_on', channel=0, note=63, velocity=0, time=455),\n",
       "  Message('note_on', channel=0, note=67, velocity=80, time=25),\n",
       "  Message('note_on', channel=0, note=63, velocity=80, time=0),\n",
       "  Message('note_on', channel=0, note=67, velocity=0, time=341),\n",
       "  Message('note_on', channel=0, note=63, velocity=0, time=0),\n",
       "  Message('note_on', channel=0, note=68, velocity=80, time=19),\n",
       "  Message('note_on', channel=0, note=65, velocity=80, time=0),\n",
       "  Message('note_on', channel=0, note=68, velocity=0, time=113),\n",
       "  Message('note_on', channel=0, note=65, velocity=0, time=0),\n",
       "  Message('note_on', channel=0, note=70, velocity=80, time=7),\n",
       "  Message('note_on', channel=0, note=67, velocity=80, time=0),\n",
       "  Message('note_on', channel=0, note=70, velocity=0, time=455),\n",
       "  Message('note_on', channel=0, note=67, velocity=0, time=0),\n",
       "  Message('note_on', channel=0, note=70, velocity=80, time=25),\n",
       "  Message('note_on', channel=0, note=67, velocity=80, time=0),\n",
       "  Message('note_on', channel=0, note=70, velocity=0, time=455),\n",
       "  Message('note_on', channel=0, note=67, velocity=0, time=0),\n",
       "  Message('note_on', channel=0, note=72, velocity=80, time=25),\n",
       "  Message('note_on', channel=0, note=68, velocity=80, time=0),\n",
       "  Message('note_on', channel=0, note=72, velocity=0, time=455),\n",
       "  Message('note_on', channel=0, note=68, velocity=0, time=0),\n",
       "  Message('note_on', channel=0, note=70, velocity=80, time=25),\n",
       "  Message('note_on', channel=0, note=67, velocity=80, time=0),\n",
       "  Message('note_on', channel=0, note=70, velocity=0, time=341),\n",
       "  Message('note_on', channel=0, note=67, velocity=0, time=0),\n",
       "  Message('note_on', channel=0, note=69, velocity=80, time=19),\n",
       "  Message('note_on', channel=0, note=66, velocity=80, time=0),\n",
       "  Message('note_on', channel=0, note=69, velocity=0, time=113),\n",
       "  Message('note_on', channel=0, note=66, velocity=0, time=0),\n",
       "  Message('note_on', channel=0, note=70, velocity=80, time=7),\n",
       "  Message('note_on', channel=0, note=67, velocity=80, time=0),\n",
       "  Message('note_on', channel=0, note=70, velocity=0, time=911),\n",
       "  Message('note_on', channel=0, note=67, velocity=0, time=0),\n",
       "  Message('note_on', channel=0, note=67, velocity=80, time=49),\n",
       "  Message('note_on', channel=0, note=63, velocity=80, time=0),\n",
       "  Message('note_on', channel=0, note=67, velocity=0, time=455),\n",
       "  Message('note_on', channel=0, note=63, velocity=0, time=0),\n",
       "  Message('note_on', channel=0, note=70, velocity=80, time=505),\n",
       "  Message('note_on', channel=0, note=62, velocity=80, time=0),\n",
       "  Message('note_on', channel=0, note=70, velocity=0, time=911),\n",
       "  Message('note_on', channel=0, note=62, velocity=0, time=0),\n",
       "  Message('note_on', channel=0, note=67, velocity=80, time=49),\n",
       "  Message('note_on', channel=0, note=63, velocity=80, time=0),\n",
       "  Message('note_on', channel=0, note=67, velocity=0, time=455),\n",
       "  Message('note_on', channel=0, note=63, velocity=0, time=0),\n",
       "  Message('note_on', channel=0, note=63, velocity=80, time=25),\n",
       "  Message('note_on', channel=0, note=63, velocity=0, time=0),\n",
       "  Message('note_on', channel=0, note=63, velocity=80, time=0),\n",
       "  Message('note_on', channel=0, note=63, velocity=0, time=341),\n",
       "  Message('note_on', channel=0, note=67, velocity=80, time=19),\n",
       "  Message('note_on', channel=0, note=63, velocity=80, time=0),\n",
       "  Message('note_on', channel=0, note=67, velocity=0, time=113),\n",
       "  Message('note_on', channel=0, note=63, velocity=0, time=0),\n",
       "  Message('note_on', channel=0, note=70, velocity=80, time=7),\n",
       "  Message('note_on', channel=0, note=62, velocity=80, time=0),\n",
       "  Message('note_on', channel=0, note=70, velocity=0, time=911),\n",
       "  Message('note_on', channel=0, note=62, velocity=0, time=0),\n",
       "  Message('note_on', channel=0, note=67, velocity=80, time=49),\n",
       "  Message('note_on', channel=0, note=63, velocity=80, time=0),\n",
       "  Message('note_on', channel=0, note=67, velocity=0, time=455),\n",
       "  Message('note_on', channel=0, note=63, velocity=0, time=0),\n",
       "  Message('note_on', channel=0, note=63, velocity=80, time=25),\n",
       "  Message('note_on', channel=0, note=63, velocity=0, time=0),\n",
       "  Message('note_on', channel=0, note=63, velocity=80, time=0),\n",
       "  Message('note_on', channel=0, note=63, velocity=0, time=341),\n",
       "  Message('note_on', channel=0, note=67, velocity=80, time=19),\n",
       "  Message('note_on', channel=0, note=63, velocity=80, time=0),\n",
       "  Message('note_on', channel=0, note=67, velocity=0, time=113),\n",
       "  Message('note_on', channel=0, note=63, velocity=0, time=0),\n",
       "  Message('note_on', channel=0, note=65, velocity=80, time=7),\n",
       "  Message('note_on', channel=0, note=62, velocity=80, time=0),\n",
       "  Message('note_on', channel=0, note=65, velocity=0, time=455),\n",
       "  Message('note_on', channel=0, note=62, velocity=0, time=0),\n",
       "  Message('note_on', channel=0, note=70, velocity=80, time=25),\n",
       "  Message('note_on', channel=0, note=62, velocity=80, time=0),\n",
       "  Message('note_on', channel=0, note=70, velocity=0, time=341),\n",
       "  Message('note_on', channel=0, note=62, velocity=0, time=0),\n",
       "  Message('note_on', channel=0, note=72, velocity=80, time=19),\n",
       "  Message('note_on', channel=0, note=63, velocity=80, time=0),\n",
       "  Message('note_on', channel=0, note=72, velocity=0, time=113),\n",
       "  Message('note_on', channel=0, note=63, velocity=0, time=0),\n",
       "  Message('note_on', channel=0, note=70, velocity=80, time=7),\n",
       "  Message('note_on', channel=0, note=62, velocity=80, time=0),\n",
       "  Message('note_on', channel=0, note=70, velocity=0, time=455),\n",
       "  Message('note_on', channel=0, note=62, velocity=0, time=0),\n",
       "  Message('note_on', channel=0, note=69, velocity=80, time=25),\n",
       "  Message('note_on', channel=0, note=63, velocity=80, time=0),\n",
       "  Message('note_on', channel=0, note=69, velocity=0, time=455),\n",
       "  Message('note_on', channel=0, note=63, velocity=0, time=0),\n",
       "  Message('note_on', channel=0, note=70, velocity=80, time=25),\n",
       "  Message('note_on', channel=0, note=62, velocity=80, time=0),\n",
       "  Message('note_on', channel=0, note=70, velocity=0, time=1367),\n",
       "  Message('note_on', channel=0, note=62, velocity=0, time=0),\n",
       "  Message('note_on', channel=0, note=72, velocity=80, time=553),\n",
       "  Message('note_on', channel=0, note=68, velocity=80, time=0),\n",
       "  Message('note_on', channel=0, note=72, velocity=0, time=911),\n",
       "  Message('note_on', channel=0, note=68, velocity=0, time=0),\n",
       "  Message('note_on', channel=0, note=70, velocity=80, time=49),\n",
       "  Message('note_on', channel=0, note=67, velocity=80, time=0),\n",
       "  Message('note_on', channel=0, note=70, velocity=0, time=455),\n",
       "  Message('note_on', channel=0, note=67, velocity=0, time=0),\n",
       "  Message('note_on', channel=0, note=67, velocity=80, time=25),\n",
       "  Message('note_on', channel=0, note=63, velocity=80, time=0),\n",
       "  Message('note_on', channel=0, note=67, velocity=0, time=341),\n",
       "  Message('note_on', channel=0, note=63, velocity=0, time=0),\n",
       "  Message('note_on', channel=0, note=63, velocity=80, time=19),\n",
       "  Message('note_on', channel=0, note=63, velocity=0, time=0),\n",
       "  Message('note_on', channel=0, note=63, velocity=80, time=0),\n",
       "  Message('note_on', channel=0, note=63, velocity=0, time=113),\n",
       "  Message('note_on', channel=0, note=70, velocity=80, time=7),\n",
       "  Message('note_on', channel=0, note=62, velocity=80, time=0),\n",
       "  Message('note_on', channel=0, note=70, velocity=0, time=455),\n",
       "  Message('note_on', channel=0, note=62, velocity=0, time=0),\n",
       "  Message('note_on', channel=0, note=68, velocity=80, time=25),\n",
       "  Message('note_on', channel=0, note=65, velocity=80, time=0),\n",
       "  Message('note_on', channel=0, note=68, velocity=0, time=455),\n",
       "  Message('note_on', channel=0, note=65, velocity=0, time=0),\n",
       "  Message('note_on', channel=0, note=67, velocity=80, time=25),\n",
       "  Message('note_on', channel=0, note=63, velocity=80, time=0),\n",
       "  Message('note_on', channel=0, note=67, velocity=0, time=911),\n",
       "  Message('note_on', channel=0, note=63, velocity=0, time=0),\n",
       "  Message('note_on', channel=0, note=72, velocity=80, time=49),\n",
       "  Message('note_on', channel=0, note=68, velocity=80, time=0),\n",
       "  Message('note_on', channel=0, note=72, velocity=0, time=683),\n",
       "  Message('note_on', channel=0, note=68, velocity=0, time=0),\n",
       "  Message('note_on', channel=0, note=70, velocity=80, time=37),\n",
       "  Message('note_on', channel=0, note=67, velocity=80, time=0),\n",
       "  Message('note_on', channel=0, note=70, velocity=0, time=227),\n",
       "  Message('note_on', channel=0, note=67, velocity=0, time=0),\n",
       "  Message('note_on', channel=0, note=72, velocity=80, time=13),\n",
       "  Message('note_on', channel=0, note=68, velocity=80, time=0),\n",
       "  Message('note_on', channel=0, note=72, velocity=0, time=227),\n",
       "  Message('note_on', channel=0, note=68, velocity=0, time=0),\n",
       "  Message('note_on', channel=0, note=70, velocity=80, time=13),\n",
       "  Message('note_on', channel=0, note=67, velocity=80, time=0),\n",
       "  Message('note_on', channel=0, note=70, velocity=0, time=227),\n",
       "  Message('note_on', channel=0, note=67, velocity=0, time=0),\n",
       "  Message('note_on', channel=0, note=68, velocity=80, time=13),\n",
       "  Message('note_on', channel=0, note=65, velocity=80, time=0),\n",
       "  Message('note_on', channel=0, note=68, velocity=0, time=227),\n",
       "  Message('note_on', channel=0, note=65, velocity=0, time=0),\n",
       "  Message('note_on', channel=0, note=67, velocity=80, time=13),\n",
       "  Message('note_on', channel=0, note=63, velocity=80, time=0),\n",
       "  Message('note_on', channel=0, note=67, velocity=0, time=227),\n",
       "  Message('note_on', channel=0, note=63, velocity=0, time=0),\n",
       "  Message('note_on', channel=0, note=68, velocity=80, time=13),\n",
       "  Message('note_on', channel=0, note=65, velocity=80, time=0),\n",
       "  Message('note_on', channel=0, note=68, velocity=0, time=455),\n",
       "  Message('note_on', channel=0, note=65, velocity=0, time=0),\n",
       "  Message('note_on', channel=0, note=67, velocity=80, time=25),\n",
       "  Message('note_on', channel=0, note=63, velocity=80, time=0),\n",
       "  Message('note_on', channel=0, note=67, velocity=0, time=455),\n",
       "  Message('note_on', channel=0, note=63, velocity=0, time=0),\n",
       "  Message('note_on', channel=0, note=65, velocity=80, time=25),\n",
       "  Message('note_on', channel=0, note=62, velocity=80, time=0),\n",
       "  Message('note_on', channel=0, note=62, velocity=0, time=0),\n",
       "  Message('note_on', channel=0, note=62, velocity=80, time=0),\n",
       "  Message('note_on', channel=0, note=58, velocity=80, time=240),\n",
       "  Message('note_on', channel=0, note=65, velocity=0, time=215),\n",
       "  Message('note_on', channel=0, note=62, velocity=0, time=0),\n",
       "  Message('note_on', channel=0, note=58, velocity=0, time=12),\n",
       "  Message('note_on', channel=0, note=60, velocity=80, time=13),\n",
       "  Message('note_on', channel=0, note=60, velocity=0, time=227),\n",
       "  Message('note_on', channel=0, note=62, velocity=80, time=13),\n",
       "  Message('note_on', channel=0, note=62, velocity=0, time=227),\n",
       "  Message('note_on', channel=0, note=63, velocity=80, time=13),\n",
       "  Message('note_on', channel=0, note=63, velocity=0, time=0),\n",
       "  Message('note_on', channel=0, note=63, velocity=80, time=0),\n",
       "  Message('note_on', channel=0, note=63, velocity=0, time=683),\n",
       "  Message('note_on', channel=0, note=58, velocity=80, time=37),\n",
       "  Message('note_on', channel=0, note=58, velocity=0, time=0),\n",
       "  Message('note_on', channel=0, note=58, velocity=80, time=0),\n",
       "  Message('note_on', channel=0, note=58, velocity=0, time=227),\n",
       "  Message('note_on', channel=0, note=60, velocity=80, time=13),\n",
       "  Message('note_on', channel=0, note=60, velocity=0, time=0),\n",
       "  Message('note_on', channel=0, note=60, velocity=80, time=0),\n",
       "  Message('note_on', channel=0, note=60, velocity=0, time=227),\n",
       "  Message('note_on', channel=0, note=62, velocity=80, time=13),\n",
       "  Message('note_on', channel=0, note=62, velocity=0, time=0),\n",
       "  Message('note_on', channel=0, note=62, velocity=80, time=0),\n",
       "  Message('note_on', channel=0, note=62, velocity=0, time=227),\n",
       "  Message('note_on', channel=0, note=63, velocity=80, time=13),\n",
       "  Message('note_on', channel=0, note=63, velocity=0, time=0),\n",
       "  Message('note_on', channel=0, note=63, velocity=80, time=0),\n",
       "  Message('note_on', channel=0, note=63, velocity=0, time=227),\n",
       "  Message('note_on', channel=0, note=65, velocity=80, time=13),\n",
       "  Message('note_on', channel=0, note=65, velocity=0, time=0),\n",
       "  Message('note_on', channel=0, note=65, velocity=80, time=0),\n",
       "  Message('note_on', channel=0, note=65, velocity=0, time=227),\n",
       "  Message('note_on', channel=0, note=67, velocity=80, time=13),\n",
       "  Message('note_on', channel=0, note=67, velocity=0, time=0),\n",
       "  Message('note_on', channel=0, note=67, velocity=80, time=0),\n",
       "  Message('note_on', channel=0, note=67, velocity=0, time=341),\n",
       "  Message('note_on', channel=0, note=65, velocity=80, time=19),\n",
       "  Message('note_on', channel=0, note=65, velocity=0, time=0),\n",
       "  Message('note_on', channel=0, note=65, velocity=80, time=0),\n",
       "  Message('note_on', channel=0, note=65, velocity=0, time=113),\n",
       "  Message('note_on', channel=0, note=67, velocity=80, time=7),\n",
       "  Message('note_on', channel=0, note=67, velocity=0, time=0),\n",
       "  Message('note_on', channel=0, note=67, velocity=80, time=0),\n",
       "  Message('note_on', channel=0, note=67, velocity=0, time=227),\n",
       "  Message('note_on', channel=0, note=68, velocity=80, time=13),\n",
       "  Message('note_on', channel=0, note=68, velocity=0, time=0),\n",
       "  Message('note_on', channel=0, note=68, velocity=80, time=0),\n",
       "  Message('note_on', channel=0, note=68, velocity=0, time=227),\n",
       "  Message('note_on', channel=0, note=70, velocity=80, time=13),\n",
       "  Message('note_on', channel=0, note=70, velocity=0, time=0),\n",
       "  Message('note_on', channel=0, note=70, velocity=80, time=0),\n",
       "  Message('note_on', channel=0, note=70, velocity=0, time=455),\n",
       "  Message('note_on', channel=0, note=72, velocity=80, time=25),\n",
       "  Message('note_on', channel=0, note=63, velocity=80, time=0),\n",
       "  Message('note_on', channel=0, note=72, velocity=0, time=455),\n",
       "  Message('note_on', channel=0, note=63, velocity=0, time=0),\n",
       "  Message('note_on', channel=0, note=63, velocity=80, time=25),\n",
       "  Message('note_on', channel=0, note=63, velocity=0, time=0),\n",
       "  Message('note_on', channel=0, note=63, velocity=80, time=0),\n",
       "  Message('note_on', channel=0, note=63, velocity=0, time=911),\n",
       "  Message('note_on', channel=0, note=65, velocity=80, time=49),\n",
       "  Message('note_on', channel=0, note=62, velocity=80, time=0),\n",
       "  Message('note_on', channel=0, note=65, velocity=0, time=683),\n",
       "  Message('note_on', channel=0, note=62, velocity=0, time=0),\n",
       "  Message('note_on', channel=0, note=63, velocity=80, time=37),\n",
       "  Message('note_on', channel=0, note=63, velocity=0, time=0),\n",
       "  Message('note_on', channel=0, note=63, velocity=80, time=0),\n",
       "  Message('note_on', channel=0, note=63, velocity=0, time=227),\n",
       "  Message('note_on', channel=0, note=63, velocity=80, time=13),\n",
       "  Message('note_on', channel=0, note=63, velocity=0, time=0),\n",
       "  Message('note_on', channel=0, note=63, velocity=80, time=0),\n",
       "  Message('note_on', channel=0, note=63, velocity=0, time=911),\n",
       "  MetaMessage('set_tempo', tempo=521739, time=1008),\n",
       "  Message('note_on', channel=0, note=63, velocity=80, time=1),\n",
       "  Message('note_on', channel=0, note=63, velocity=0, time=0),\n",
       "  Message('note_on', channel=0, note=63, velocity=80, time=0),\n",
       "  Message('note_on', channel=0, note=63, velocity=0, time=911),\n",
       "  Message('note_on', channel=0, note=58, velocity=80, time=49),\n",
       "  Message('note_on', channel=0, note=58, velocity=0, time=0),\n",
       "  Message('note_on', channel=0, note=58, velocity=80, time=0),\n",
       "  Message('note_on', channel=0, note=58, velocity=0, time=455),\n",
       "  Message('note_on', channel=0, note=63, velocity=80, time=25),\n",
       "  Message('note_on', channel=0, note=63, velocity=0, time=0),\n",
       "  Message('note_on', channel=0, note=63, velocity=80, time=0),\n",
       "  Message('note_on', channel=0, note=63, velocity=0, time=341),\n",
       "  Message('note_on', channel=0, note=65, velocity=80, time=19),\n",
       "  Message('note_on', channel=0, note=65, velocity=0, time=0),\n",
       "  Message('note_on', channel=0, note=65, velocity=80, time=0),\n",
       "  Message('note_on', channel=0, note=65, velocity=0, time=113),\n",
       "  Message('note_on', channel=0, note=67, velocity=80, time=7),\n",
       "  Message('note_on', channel=0, note=67, velocity=0, time=0),\n",
       "  Message('note_on', channel=0, note=67, velocity=80, time=0),\n",
       "  Message('note_on', channel=0, note=67, velocity=0, time=911),\n",
       "  Message('note_on', channel=0, note=63, velocity=80, time=49),\n",
       "  Message('note_on', channel=0, note=63, velocity=0, time=0),\n",
       "  Message('note_on', channel=0, note=63, velocity=80, time=0),\n",
       "  Message('note_on', channel=0, note=63, velocity=0, time=455),\n",
       "  Message('note_on', channel=0, note=67, velocity=80, time=25),\n",
       "  Message('note_on', channel=0, note=63, velocity=80, time=0),\n",
       "  Message('note_on', channel=0, note=67, velocity=0, time=341),\n",
       "  Message('note_on', channel=0, note=63, velocity=0, time=0),\n",
       "  Message('note_on', channel=0, note=68, velocity=80, time=19),\n",
       "  Message('note_on', channel=0, note=65, velocity=80, time=0),\n",
       "  Message('note_on', channel=0, note=68, velocity=0, time=113),\n",
       "  Message('note_on', channel=0, note=65, velocity=0, time=0),\n",
       "  Message('note_on', channel=0, note=70, velocity=80, time=7),\n",
       "  Message('note_on', channel=0, note=67, velocity=80, time=0),\n",
       "  Message('note_on', channel=0, note=70, velocity=0, time=455),\n",
       "  Message('note_on', channel=0, note=67, velocity=0, time=0),\n",
       "  Message('note_on', channel=0, note=70, velocity=80, time=25),\n",
       "  Message('note_on', channel=0, note=67, velocity=80, time=0),\n",
       "  Message('note_on', channel=0, note=70, velocity=0, time=455),\n",
       "  Message('note_on', channel=0, note=67, velocity=0, time=0),\n",
       "  Message('note_on', channel=0, note=72, velocity=80, time=25),\n",
       "  Message('note_on', channel=0, note=68, velocity=80, time=0),\n",
       "  Message('note_on', channel=0, note=72, velocity=0, time=455),\n",
       "  Message('note_on', channel=0, note=68, velocity=0, time=0),\n",
       "  Message('note_on', channel=0, note=70, velocity=80, time=25),\n",
       "  Message('note_on', channel=0, note=67, velocity=80, time=0),\n",
       "  Message('note_on', channel=0, note=70, velocity=0, time=341),\n",
       "  Message('note_on', channel=0, note=67, velocity=0, time=0),\n",
       "  Message('note_on', channel=0, note=69, velocity=80, time=19),\n",
       "  Message('note_on', channel=0, note=66, velocity=80, time=0),\n",
       "  Message('note_on', channel=0, note=69, velocity=0, time=113),\n",
       "  Message('note_on', channel=0, note=66, velocity=0, time=0),\n",
       "  Message('note_on', channel=0, note=70, velocity=80, time=7),\n",
       "  Message('note_on', channel=0, note=67, velocity=80, time=0),\n",
       "  Message('note_on', channel=0, note=70, velocity=0, time=911),\n",
       "  Message('note_on', channel=0, note=67, velocity=0, time=0),\n",
       "  Message('note_on', channel=0, note=67, velocity=80, time=49),\n",
       "  Message('note_on', channel=0, note=63, velocity=80, time=0),\n",
       "  Message('note_on', channel=0, note=67, velocity=0, time=455),\n",
       "  Message('note_on', channel=0, note=63, velocity=0, time=0),\n",
       "  Message('note_on', channel=0, note=70, velocity=80, time=505),\n",
       "  Message('note_on', channel=0, note=62, velocity=80, time=0),\n",
       "  Message('note_on', channel=0, note=70, velocity=0, time=911),\n",
       "  Message('note_on', channel=0, note=62, velocity=0, time=0),\n",
       "  Message('note_on', channel=0, note=67, velocity=80, time=49),\n",
       "  Message('note_on', channel=0, note=63, velocity=80, time=0),\n",
       "  Message('note_on', channel=0, note=67, velocity=0, time=455),\n",
       "  Message('note_on', channel=0, note=63, velocity=0, time=0),\n",
       "  Message('note_on', channel=0, note=63, velocity=80, time=25),\n",
       "  Message('note_on', channel=0, note=63, velocity=0, time=0),\n",
       "  Message('note_on', channel=0, note=63, velocity=80, time=0),\n",
       "  Message('note_on', channel=0, note=63, velocity=0, time=341),\n",
       "  Message('note_on', channel=0, note=67, velocity=80, time=19),\n",
       "  Message('note_on', channel=0, note=63, velocity=80, time=0),\n",
       "  Message('note_on', channel=0, note=67, velocity=0, time=113),\n",
       "  Message('note_on', channel=0, note=63, velocity=0, time=0),\n",
       "  Message('note_on', channel=0, note=70, velocity=80, time=7),\n",
       "  Message('note_on', channel=0, note=62, velocity=80, time=0),\n",
       "  Message('note_on', channel=0, note=70, velocity=0, time=911),\n",
       "  Message('note_on', channel=0, note=62, velocity=0, time=0),\n",
       "  Message('note_on', channel=0, note=67, velocity=80, time=49),\n",
       "  Message('note_on', channel=0, note=63, velocity=80, time=0),\n",
       "  Message('note_on', channel=0, note=67, velocity=0, time=455),\n",
       "  Message('note_on', channel=0, note=63, velocity=0, time=0),\n",
       "  Message('note_on', channel=0, note=63, velocity=80, time=25),\n",
       "  Message('note_on', channel=0, note=63, velocity=0, time=0),\n",
       "  Message('note_on', channel=0, note=63, velocity=80, time=0),\n",
       "  Message('note_on', channel=0, note=63, velocity=0, time=341),\n",
       "  Message('note_on', channel=0, note=67, velocity=80, time=19),\n",
       "  Message('note_on', channel=0, note=63, velocity=80, time=0),\n",
       "  Message('note_on', channel=0, note=67, velocity=0, time=113),\n",
       "  Message('note_on', channel=0, note=63, velocity=0, time=0),\n",
       "  Message('note_on', channel=0, note=65, velocity=80, time=7),\n",
       "  Message('note_on', channel=0, note=62, velocity=80, time=0),\n",
       "  Message('note_on', channel=0, note=65, velocity=0, time=455),\n",
       "  Message('note_on', channel=0, note=62, velocity=0, time=0),\n",
       "  Message('note_on', channel=0, note=70, velocity=80, time=25),\n",
       "  Message('note_on', channel=0, note=62, velocity=80, time=0),\n",
       "  Message('note_on', channel=0, note=70, velocity=0, time=341),\n",
       "  Message('note_on', channel=0, note=62, velocity=0, time=0),\n",
       "  Message('note_on', channel=0, note=72, velocity=80, time=19),\n",
       "  Message('note_on', channel=0, note=63, velocity=80, time=0),\n",
       "  Message('note_on', channel=0, note=72, velocity=0, time=113),\n",
       "  Message('note_on', channel=0, note=63, velocity=0, time=0),\n",
       "  Message('note_on', channel=0, note=70, velocity=80, time=7),\n",
       "  Message('note_on', channel=0, note=62, velocity=80, time=0),\n",
       "  Message('note_on', channel=0, note=70, velocity=0, time=455),\n",
       "  Message('note_on', channel=0, note=62, velocity=0, time=0),\n",
       "  Message('note_on', channel=0, note=69, velocity=80, time=25),\n",
       "  Message('note_on', channel=0, note=63, velocity=80, time=0),\n",
       "  Message('note_on', channel=0, note=69, velocity=0, time=455),\n",
       "  Message('note_on', channel=0, note=63, velocity=0, time=0),\n",
       "  Message('note_on', channel=0, note=70, velocity=80, time=25),\n",
       "  Message('note_on', channel=0, note=62, velocity=80, time=0),\n",
       "  Message('note_on', channel=0, note=70, velocity=0, time=1367),\n",
       "  Message('note_on', channel=0, note=62, velocity=0, time=0),\n",
       "  Message('note_on', channel=0, note=72, velocity=80, time=553),\n",
       "  Message('note_on', channel=0, note=68, velocity=80, time=0),\n",
       "  Message('note_on', channel=0, note=72, velocity=0, time=911),\n",
       "  Message('note_on', channel=0, note=68, velocity=0, time=0),\n",
       "  Message('note_on', channel=0, note=70, velocity=80, time=49),\n",
       "  Message('note_on', channel=0, note=67, velocity=80, time=0),\n",
       "  Message('note_on', channel=0, note=70, velocity=0, time=455),\n",
       "  Message('note_on', channel=0, note=67, velocity=0, time=0),\n",
       "  Message('note_on', channel=0, note=67, velocity=80, time=25),\n",
       "  Message('note_on', channel=0, note=63, velocity=80, time=0),\n",
       "  Message('note_on', channel=0, note=67, velocity=0, time=341),\n",
       "  Message('note_on', channel=0, note=63, velocity=0, time=0),\n",
       "  Message('note_on', channel=0, note=63, velocity=80, time=19),\n",
       "  Message('note_on', channel=0, note=63, velocity=0, time=0),\n",
       "  Message('note_on', channel=0, note=63, velocity=80, time=0),\n",
       "  Message('note_on', channel=0, note=63, velocity=0, time=113),\n",
       "  Message('note_on', channel=0, note=70, velocity=80, time=7),\n",
       "  Message('note_on', channel=0, note=62, velocity=80, time=0),\n",
       "  Message('note_on', channel=0, note=70, velocity=0, time=455),\n",
       "  Message('note_on', channel=0, note=62, velocity=0, time=0),\n",
       "  Message('note_on', channel=0, note=68, velocity=80, time=25),\n",
       "  Message('note_on', channel=0, note=65, velocity=80, time=0),\n",
       "  Message('note_on', channel=0, note=68, velocity=0, time=455),\n",
       "  Message('note_on', channel=0, note=65, velocity=0, time=0),\n",
       "  Message('note_on', channel=0, note=67, velocity=80, time=25),\n",
       "  Message('note_on', channel=0, note=63, velocity=80, time=0),\n",
       "  Message('note_on', channel=0, note=67, velocity=0, time=911),\n",
       "  Message('note_on', channel=0, note=63, velocity=0, time=0),\n",
       "  Message('note_on', channel=0, note=72, velocity=80, time=49),\n",
       "  Message('note_on', channel=0, note=68, velocity=80, time=0),\n",
       "  Message('note_on', channel=0, note=72, velocity=0, time=683),\n",
       "  Message('note_on', channel=0, note=68, velocity=0, time=0),\n",
       "  Message('note_on', channel=0, note=70, velocity=80, time=37),\n",
       "  Message('note_on', channel=0, note=67, velocity=80, time=0),\n",
       "  Message('note_on', channel=0, note=70, velocity=0, time=227),\n",
       "  Message('note_on', channel=0, note=67, velocity=0, time=0),\n",
       "  Message('note_on', channel=0, note=72, velocity=80, time=13),\n",
       "  Message('note_on', channel=0, note=68, velocity=80, time=0),\n",
       "  Message('note_on', channel=0, note=72, velocity=0, time=227),\n",
       "  Message('note_on', channel=0, note=68, velocity=0, time=0),\n",
       "  Message('note_on', channel=0, note=70, velocity=80, time=13),\n",
       "  Message('note_on', channel=0, note=67, velocity=80, time=0),\n",
       "  Message('note_on', channel=0, note=70, velocity=0, time=227),\n",
       "  Message('note_on', channel=0, note=67, velocity=0, time=0),\n",
       "  Message('note_on', channel=0, note=68, velocity=80, time=13),\n",
       "  Message('note_on', channel=0, note=65, velocity=80, time=0),\n",
       "  Message('note_on', channel=0, note=68, velocity=0, time=227),\n",
       "  Message('note_on', channel=0, note=65, velocity=0, time=0),\n",
       "  Message('note_on', channel=0, note=67, velocity=80, time=13),\n",
       "  Message('note_on', channel=0, note=63, velocity=80, time=0),\n",
       "  Message('note_on', channel=0, note=67, velocity=0, time=227),\n",
       "  Message('note_on', channel=0, note=63, velocity=0, time=0),\n",
       "  Message('note_on', channel=0, note=68, velocity=80, time=13),\n",
       "  Message('note_on', channel=0, note=65, velocity=80, time=0),\n",
       "  Message('note_on', channel=0, note=68, velocity=0, time=455),\n",
       "  Message('note_on', channel=0, note=65, velocity=0, time=0),\n",
       "  Message('note_on', channel=0, note=67, velocity=80, time=25),\n",
       "  Message('note_on', channel=0, note=63, velocity=80, time=0),\n",
       "  Message('note_on', channel=0, note=67, velocity=0, time=455),\n",
       "  Message('note_on', channel=0, note=63, velocity=0, time=0),\n",
       "  Message('note_on', channel=0, note=65, velocity=80, time=25),\n",
       "  Message('note_on', channel=0, note=62, velocity=80, time=0),\n",
       "  Message('note_on', channel=0, note=62, velocity=0, time=0),\n",
       "  Message('note_on', channel=0, note=62, velocity=80, time=0),\n",
       "  Message('note_on', channel=0, note=58, velocity=80, time=240),\n",
       "  Message('note_on', channel=0, note=65, velocity=0, time=215),\n",
       "  Message('note_on', channel=0, note=62, velocity=0, time=0),\n",
       "  Message('note_on', channel=0, note=58, velocity=0, time=12),\n",
       "  Message('note_on', channel=0, note=60, velocity=80, time=13),\n",
       "  Message('note_on', channel=0, note=60, velocity=0, time=227),\n",
       "  Message('note_on', channel=0, note=62, velocity=80, time=13),\n",
       "  Message('note_on', channel=0, note=62, velocity=0, time=227),\n",
       "  Message('note_on', channel=0, note=63, velocity=80, time=13),\n",
       "  Message('note_on', channel=0, note=63, velocity=0, time=0),\n",
       "  Message('note_on', channel=0, note=63, velocity=80, time=0),\n",
       "  Message('note_on', channel=0, note=63, velocity=0, time=683),\n",
       "  Message('note_on', channel=0, note=58, velocity=80, time=37),\n",
       "  Message('note_on', channel=0, note=58, velocity=0, time=0),\n",
       "  Message('note_on', channel=0, note=58, velocity=80, time=0),\n",
       "  Message('note_on', channel=0, note=58, velocity=0, time=227),\n",
       "  Message('note_on', channel=0, note=60, velocity=80, time=13),\n",
       "  Message('note_on', channel=0, note=60, velocity=0, time=0),\n",
       "  Message('note_on', channel=0, note=60, velocity=80, time=0),\n",
       "  Message('note_on', channel=0, note=60, velocity=0, time=227),\n",
       "  Message('note_on', channel=0, note=62, velocity=80, time=13),\n",
       "  Message('note_on', channel=0, note=62, velocity=0, time=0),\n",
       "  Message('note_on', channel=0, note=62, velocity=80, time=0),\n",
       "  Message('note_on', channel=0, note=62, velocity=0, time=227),\n",
       "  Message('note_on', channel=0, note=63, velocity=80, time=13),\n",
       "  Message('note_on', channel=0, note=63, velocity=0, time=0),\n",
       "  Message('note_on', channel=0, note=63, velocity=80, time=0),\n",
       "  Message('note_on', channel=0, note=63, velocity=0, time=227),\n",
       "  Message('note_on', channel=0, note=65, velocity=80, time=13),\n",
       "  Message('note_on', channel=0, note=65, velocity=0, time=0),\n",
       "  Message('note_on', channel=0, note=65, velocity=80, time=0),\n",
       "  Message('note_on', channel=0, note=65, velocity=0, time=227),\n",
       "  Message('note_on', channel=0, note=67, velocity=80, time=13),\n",
       "  Message('note_on', channel=0, note=67, velocity=0, time=0),\n",
       "  Message('note_on', channel=0, note=67, velocity=80, time=0),\n",
       "  Message('note_on', channel=0, note=67, velocity=0, time=341),\n",
       "  Message('note_on', channel=0, note=65, velocity=80, time=19),\n",
       "  Message('note_on', channel=0, note=65, velocity=0, time=0),\n",
       "  Message('note_on', channel=0, note=65, velocity=80, time=0),\n",
       "  Message('note_on', channel=0, note=65, velocity=0, time=113),\n",
       "  Message('note_on', channel=0, note=67, velocity=80, time=7),\n",
       "  Message('note_on', channel=0, note=67, velocity=0, time=0),\n",
       "  Message('note_on', channel=0, note=67, velocity=80, time=0),\n",
       "  Message('note_on', channel=0, note=67, velocity=0, time=227),\n",
       "  Message('note_on', channel=0, note=68, velocity=80, time=13),\n",
       "  Message('note_on', channel=0, note=68, velocity=0, time=0),\n",
       "  Message('note_on', channel=0, note=68, velocity=80, time=0),\n",
       "  Message('note_on', channel=0, note=68, velocity=0, time=227),\n",
       "  Message('note_on', channel=0, note=70, velocity=80, time=13),\n",
       "  Message('note_on', channel=0, note=70, velocity=0, time=0),\n",
       "  Message('note_on', channel=0, note=70, velocity=80, time=0),\n",
       "  Message('note_on', channel=0, note=70, velocity=0, time=455),\n",
       "  Message('note_on', channel=0, note=72, velocity=80, time=25),\n",
       "  Message('note_on', channel=0, note=63, velocity=80, time=0),\n",
       "  Message('note_on', channel=0, note=72, velocity=0, time=455),\n",
       "  Message('note_on', channel=0, note=63, velocity=0, time=0),\n",
       "  Message('note_on', channel=0, note=70, velocity=80, time=25),\n",
       "  Message('note_on', channel=0, note=63, velocity=80, time=0),\n",
       "  Message('note_on', channel=0, note=70, velocity=0, time=479),\n",
       "  Message('note_on', channel=0, note=63, velocity=0, time=0),\n",
       "  Message('note_on', channel=0, note=75, velocity=80, time=1),\n",
       "  Message('note_on', channel=0, note=67, velocity=80, time=0),\n",
       "  Message('note_on', channel=0, note=75, velocity=0, time=455),\n",
       "  Message('note_on', channel=0, note=67, velocity=0, time=0),\n",
       "  Message('note_on', channel=0, note=77, velocity=80, time=25),\n",
       "  Message('note_on', channel=0, note=68, velocity=80, time=0),\n",
       "  Message('note_on', channel=0, note=77, velocity=0, time=683),\n",
       "  Message('note_on', channel=0, note=68, velocity=0, time=0),\n",
       "  Message('note_on', channel=0, note=75, velocity=80, time=37),\n",
       "  Message('note_on', channel=0, note=67, velocity=80, time=0),\n",
       "  Message('note_on', channel=0, note=75, velocity=0, time=227),\n",
       "  Message('note_on', channel=0, note=67, velocity=0, time=0),\n",
       "  Message('note_on', channel=0, note=75, velocity=80, time=13),\n",
       "  Message('note_on', channel=0, note=67, velocity=80, time=0),\n",
       "  Message('note_on', channel=0, note=75, velocity=0, time=1367),\n",
       "  Message('note_on', channel=0, note=67, velocity=0, time=0),\n",
       "  MetaMessage('end_of_track', time=1)])"
      ]
     },
     "execution_count": 39,
     "metadata": {},
     "output_type": "execute_result"
    }
   ],
   "source": [
    "mid = MidiFile('alvinwong/004..mid')\n",
    "mid.tracks[0]"
   ]
  },
  {
   "cell_type": "code",
   "execution_count": 42,
   "metadata": {},
   "outputs": [],
   "source": [
    "add_rest_notes(\"alvinwong_piano_ai/004..mid\", 455)"
   ]
  },
  {
   "cell_type": "code",
   "execution_count": 43,
   "metadata": {},
   "outputs": [
    {
     "data": {
      "text/plain": [
       "MidiTrack([\n",
       "  MetaMessage('track_name', name='Piano', time=0),\n",
       "  MetaMessage('time_signature', numerator=4, denominator=4, clocks_per_click=24, notated_32nd_notes_per_beat=8, time=0),\n",
       "  MetaMessage('key_signature', key='A', time=0),\n",
       "  MetaMessage('set_tempo', tempo=521739, time=0),\n",
       "  Message('control_change', channel=0, control=121, value=0, time=0),\n",
       "  Message('control_change', channel=0, control=100, value=0, time=0),\n",
       "  Message('control_change', channel=0, control=101, value=0, time=0),\n",
       "  Message('control_change', channel=0, control=6, value=12, time=0),\n",
       "  Message('control_change', channel=0, control=100, value=127, time=0),\n",
       "  Message('control_change', channel=0, control=101, value=127, time=0),\n",
       "  Message('program_change', channel=0, program=0, time=0),\n",
       "  Message('control_change', channel=0, control=7, value=100, time=0),\n",
       "  Message('control_change', channel=0, control=10, value=64, time=0),\n",
       "  Message('control_change', channel=0, control=91, value=0, time=0),\n",
       "  Message('control_change', channel=0, control=93, value=0, time=0),\n",
       "  MetaMessage('midi_port', port=0, time=0),\n",
       "  Message('note_on', channel=0, note=69, velocity=80, time=0),\n",
       "  Message('note_on', channel=0, note=64, velocity=80, time=0),\n",
       "  Message('note_on', channel=0, note=69, velocity=0, time=455),\n",
       "  Message('note_on', channel=0, note=64, velocity=0, time=0),\n",
       "  Message('note_on', channel=0, note=69, velocity=80, time=25),\n",
       "  Message('note_on', channel=0, note=64, velocity=80, time=0),\n",
       "  Message('note_on', channel=0, note=69, velocity=0, time=341),\n",
       "  Message('note_on', channel=0, note=64, velocity=0, time=0),\n",
       "  Message('note_on', channel=0, note=69, velocity=80, time=19),\n",
       "  Message('note_on', channel=0, note=64, velocity=80, time=0),\n",
       "  Message('note_on', channel=0, note=69, velocity=0, time=113),\n",
       "  Message('note_on', channel=0, note=64, velocity=0, time=0),\n",
       "  Message('note_on', channel=0, note=69, velocity=80, time=7),\n",
       "  Message('note_on', channel=0, note=64, velocity=80, time=0),\n",
       "  Message('note_on', channel=0, note=69, velocity=0, time=455),\n",
       "  Message('note_on', channel=0, note=64, velocity=0, time=0),\n",
       "  Message('note_on', channel=0, note=73, velocity=80, time=25),\n",
       "  Message('note_on', channel=0, note=64, velocity=80, time=0),\n",
       "  Message('note_on', channel=0, note=73, velocity=0, time=227),\n",
       "  Message('note_on', channel=0, note=64, velocity=0, time=0),\n",
       "  Message('note_on', channel=0, note=74, velocity=80, time=13),\n",
       "  Message('note_on', channel=0, note=64, velocity=80, time=0),\n",
       "  Message('note_on', channel=0, note=74, velocity=0, time=227),\n",
       "  Message('note_on', channel=0, note=64, velocity=0, time=0),\n",
       "  Message('note_on', channel=0, note=76, velocity=80, time=13),\n",
       "  Message('note_on', channel=0, note=69, velocity=80, time=0),\n",
       "  Message('note_on', channel=0, note=76, velocity=0, time=911),\n",
       "  Message('note_on', channel=0, note=69, velocity=0, time=0),\n",
       "  Message('note_on', channel=0, note=73, velocity=80, time=49),\n",
       "  Message('note_on', channel=0, note=64, velocity=80, time=0),\n",
       "  Message('note_on', channel=0, note=73, velocity=0, time=455),\n",
       "  Message('note_on', channel=0, note=64, velocity=0, time=0),\n",
       "  Message('note_on', channel=0, note=71, velocity=80, time=505),\n",
       "  Message('note_on', channel=0, note=64, velocity=80, time=0),\n",
       "  Message('note_on', channel=0, note=71, velocity=0, time=455),\n",
       "  Message('note_on', channel=0, note=64, velocity=0, time=0),\n",
       "  Message('note_on', channel=0, note=71, velocity=80, time=25),\n",
       "  Message('note_on', channel=0, note=64, velocity=80, time=0),\n",
       "  Message('note_on', channel=0, note=71, velocity=0, time=341),\n",
       "  Message('note_on', channel=0, note=64, velocity=0, time=0),\n",
       "  Message('note_on', channel=0, note=71, velocity=80, time=19),\n",
       "  Message('note_on', channel=0, note=64, velocity=80, time=0),\n",
       "  Message('note_on', channel=0, note=71, velocity=0, time=113),\n",
       "  Message('note_on', channel=0, note=64, velocity=0, time=0),\n",
       "  Message('note_on', channel=0, note=71, velocity=80, time=7),\n",
       "  Message('note_on', channel=0, note=64, velocity=80, time=0),\n",
       "  Message('note_on', channel=0, note=71, velocity=0, time=455),\n",
       "  Message('note_on', channel=0, note=64, velocity=0, time=0),\n",
       "  Message('note_on', channel=0, note=73, velocity=80, time=505),\n",
       "  Message('note_on', channel=0, note=64, velocity=80, time=0),\n",
       "  Message('note_on', channel=0, note=73, velocity=0, time=455),\n",
       "  Message('note_on', channel=0, note=64, velocity=0, time=0),\n",
       "  Message('note_on', channel=0, note=73, velocity=80, time=25),\n",
       "  Message('note_on', channel=0, note=64, velocity=80, time=0),\n",
       "  Message('note_on', channel=0, note=73, velocity=0, time=341),\n",
       "  Message('note_on', channel=0, note=64, velocity=0, time=0),\n",
       "  Message('note_on', channel=0, note=73, velocity=80, time=19),\n",
       "  Message('note_on', channel=0, note=64, velocity=80, time=0),\n",
       "  Message('note_on', channel=0, note=73, velocity=0, time=113),\n",
       "  Message('note_on', channel=0, note=64, velocity=0, time=0),\n",
       "  Message('note_on', channel=0, note=73, velocity=80, time=7),\n",
       "  Message('note_on', channel=0, note=64, velocity=80, time=0),\n",
       "  Message('note_on', channel=0, note=73, velocity=0, time=455),\n",
       "  Message('note_on', channel=0, note=64, velocity=0, time=0),\n",
       "  Message('note_on', channel=0, note=69, velocity=80, time=505),\n",
       "  Message('note_on', channel=0, note=64, velocity=80, time=0),\n",
       "  Message('note_on', channel=0, note=69, velocity=0, time=455),\n",
       "  Message('note_on', channel=0, note=64, velocity=0, time=0),\n",
       "  Message('note_on', channel=0, note=69, velocity=80, time=25),\n",
       "  Message('note_on', channel=0, note=64, velocity=80, time=0),\n",
       "  Message('note_on', channel=0, note=69, velocity=0, time=341),\n",
       "  Message('note_on', channel=0, note=64, velocity=0, time=0),\n",
       "  Message('note_on', channel=0, note=69, velocity=80, time=19),\n",
       "  Message('note_on', channel=0, note=64, velocity=80, time=0),\n",
       "  Message('note_on', channel=0, note=69, velocity=0, time=113),\n",
       "  Message('note_on', channel=0, note=64, velocity=0, time=0),\n",
       "  Message('note_on', channel=0, note=69, velocity=80, time=7),\n",
       "  Message('note_on', channel=0, note=64, velocity=80, time=0),\n",
       "  Message('note_on', channel=0, note=69, velocity=0, time=455),\n",
       "  Message('note_on', channel=0, note=64, velocity=0, time=0),\n",
       "  Message('note_on', channel=0, note=73, velocity=80, time=25),\n",
       "  Message('note_on', channel=0, note=69, velocity=80, time=0),\n",
       "  Message('note_on', channel=0, note=73, velocity=0, time=227),\n",
       "  Message('note_on', channel=0, note=69, velocity=0, time=0),\n",
       "  Message('note_on', channel=0, note=74, velocity=80, time=13),\n",
       "  Message('note_on', channel=0, note=69, velocity=80, time=0),\n",
       "  Message('note_on', channel=0, note=74, velocity=0, time=227),\n",
       "  Message('note_on', channel=0, note=69, velocity=0, time=0),\n",
       "  MetaMessage('time_signature', numerator=3, denominator=4, clocks_per_click=24, notated_32nd_notes_per_beat=8, time=13),\n",
       "  Message('note_on', channel=0, note=76, velocity=80, time=0),\n",
       "  Message('note_on', channel=0, note=73, velocity=80, time=0),\n",
       "  Message('note_on', channel=0, note=76, velocity=0, time=911),\n",
       "  Message('note_on', channel=0, note=73, velocity=0, time=0),\n",
       "  Message('note_on', channel=0, note=73, velocity=80, time=49),\n",
       "  Message('note_on', channel=0, note=64, velocity=0, time=0),\n",
       "  Message('note_on', channel=0, note=64, velocity=0, time=0),\n",
       "  Message('note_on', channel=0, note=73, velocity=0, time=455),\n",
       "  MetaMessage('time_signature', numerator=1, denominator=4, clocks_per_click=24, notated_32nd_notes_per_beat=8, time=25),\n",
       "  Message('note_on', channel=0, note=69, velocity=80, time=0),\n",
       "  Message('note_on', channel=0, note=64, velocity=80, time=0),\n",
       "  Message('note_on', channel=0, note=69, velocity=0, time=455),\n",
       "  Message('note_on', channel=0, note=64, velocity=0, time=0),\n",
       "  MetaMessage('time_signature', numerator=4, denominator=4, clocks_per_click=24, notated_32nd_notes_per_beat=8, time=25),\n",
       "  Message('note_on', channel=0, note=71, velocity=80, time=0),\n",
       "  Message('note_on', channel=0, note=64, velocity=80, time=0),\n",
       "  Message('note_on', channel=0, note=71, velocity=0, time=455),\n",
       "  Message('note_on', channel=0, note=64, velocity=0, time=0),\n",
       "  Message('note_on', channel=0, note=71, velocity=80, time=25),\n",
       "  Message('note_on', channel=0, note=64, velocity=80, time=0),\n",
       "  Message('note_on', channel=0, note=71, velocity=0, time=455),\n",
       "  Message('note_on', channel=0, note=64, velocity=0, time=0),\n",
       "  Message('note_on', channel=0, note=73, velocity=80, time=25),\n",
       "  Message('note_on', channel=0, note=64, velocity=80, time=0),\n",
       "  Message('note_on', channel=0, note=73, velocity=0, time=683),\n",
       "  Message('note_on', channel=0, note=64, velocity=0, time=0),\n",
       "  Message('note_on', channel=0, note=71, velocity=80, time=37),\n",
       "  Message('note_on', channel=0, note=64, velocity=80, time=0),\n",
       "  Message('note_on', channel=0, note=71, velocity=0, time=227),\n",
       "  Message('note_on', channel=0, note=64, velocity=0, time=0),\n",
       "  Message('note_on', channel=0, note=69, velocity=80, time=13),\n",
       "  Message('note_on', channel=0, note=61, velocity=80, time=0),\n",
       "  Message('note_on', channel=0, note=69, velocity=0, time=1367),\n",
       "  Message('note_on', channel=0, note=61, velocity=0, time=0),\n",
       "  Message('note_on', channel=0, note=64, velocity=80, time=73),\n",
       "  Message('note_on', channel=0, note=61, velocity=80, time=0),\n",
       "  Message('note_on', channel=0, note=64, velocity=0, time=455),\n",
       "  Message('note_on', channel=0, note=61, velocity=0, time=0),\n",
       "  Message('note_on', channel=0, note=64, velocity=80, time=25),\n",
       "  Message('note_on', channel=0, note=61, velocity=80, time=0),\n",
       "  Message('note_on', channel=0, note=64, velocity=0, time=455),\n",
       "  Message('note_on', channel=0, note=61, velocity=0, time=0),\n",
       "  Message('note_on', channel=0, note=69, velocity=80, time=25),\n",
       "  Message('note_on', channel=0, note=61, velocity=80, time=0),\n",
       "  Message('note_on', channel=0, note=69, velocity=0, time=455),\n",
       "  Message('note_on', channel=0, note=61, velocity=0, time=0),\n",
       "  Message('note_on', channel=0, note=69, velocity=80, time=25),\n",
       "  Message('note_on', channel=0, note=61, velocity=80, time=0),\n",
       "  Message('note_on', channel=0, note=69, velocity=0, time=455),\n",
       "  Message('note_on', channel=0, note=61, velocity=0, time=0),\n",
       "  Message('note_on', channel=0, note=71, velocity=80, time=25),\n",
       "  Message('note_on', channel=0, note=62, velocity=80, time=0),\n",
       "  Message('note_on', channel=0, note=71, velocity=0, time=455),\n",
       "  Message('note_on', channel=0, note=62, velocity=0, time=0),\n",
       "  Message('note_on', channel=0, note=73, velocity=80, time=25),\n",
       "  Message('note_on', channel=0, note=64, velocity=80, time=0),\n",
       "  Message('note_on', channel=0, note=73, velocity=0, time=455),\n",
       "  Message('note_on', channel=0, note=64, velocity=0, time=0),\n",
       "  Message('note_on', channel=0, note=73, velocity=80, time=25),\n",
       "  Message('note_on', channel=0, note=64, velocity=80, time=0),\n",
       "  Message('note_on', channel=0, note=73, velocity=0, time=455),\n",
       "  Message('note_on', channel=0, note=64, velocity=0, time=0),\n",
       "  Message('note_on', channel=0, note=73, velocity=80, time=25),\n",
       "  Message('note_on', channel=0, note=64, velocity=80, time=0),\n",
       "  Message('note_on', channel=0, note=73, velocity=0, time=455),\n",
       "  Message('note_on', channel=0, note=64, velocity=0, time=0),\n",
       "  Message('note_on', channel=0, note=74, velocity=80, time=25),\n",
       "  Message('note_on', channel=0, note=66, velocity=80, time=0),\n",
       "  Message('note_on', channel=0, note=74, velocity=0, time=227),\n",
       "  Message('note_on', channel=0, note=66, velocity=0, time=0),\n",
       "  Message('note_on', channel=0, note=73, velocity=80, time=13),\n",
       "  Message('note_on', channel=0, note=64, velocity=80, time=0),\n",
       "  Message('note_on', channel=0, note=73, velocity=0, time=227),\n",
       "  Message('note_on', channel=0, note=64, velocity=0, time=0),\n",
       "  Message('note_on', channel=0, note=71, velocity=80, time=13),\n",
       "  Message('note_on', channel=0, note=62, velocity=80, time=0),\n",
       "  Message('note_on', channel=0, note=71, velocity=0, time=455),\n",
       "  Message('note_on', channel=0, note=62, velocity=0, time=0),\n",
       "  Message('note_on', channel=0, note=71, velocity=80, time=25),\n",
       "  Message('note_on', channel=0, note=62, velocity=80, time=0),\n",
       "  Message('note_on', channel=0, note=71, velocity=0, time=455),\n",
       "  Message('note_on', channel=0, note=62, velocity=0, time=0),\n",
       "  Message('note_on', channel=0, note=71, velocity=80, time=25),\n",
       "  Message('note_on', channel=0, note=62, velocity=80, time=0),\n",
       "  Message('note_on', channel=0, note=71, velocity=0, time=455),\n",
       "  Message('note_on', channel=0, note=62, velocity=0, time=0),\n",
       "  Message('note_on', channel=0, note=69, velocity=80, time=25),\n",
       "  Message('note_on', channel=0, note=61, velocity=80, time=0),\n",
       "  Message('note_on', channel=0, note=69, velocity=0, time=227),\n",
       "  Message('note_on', channel=0, note=61, velocity=0, time=0),\n",
       "  Message('note_on', channel=0, note=71, velocity=80, time=13),\n",
       "  Message('note_on', channel=0, note=62, velocity=80, time=0),\n",
       "  Message('note_on', channel=0, note=71, velocity=0, time=227),\n",
       "  Message('note_on', channel=0, note=62, velocity=0, time=0),\n",
       "  MetaMessage('time_signature', numerator=3, denominator=4, clocks_per_click=24, notated_32nd_notes_per_beat=8, time=13),\n",
       "  Message('note_on', channel=0, note=73, velocity=80, time=0),\n",
       "  Message('note_on', channel=0, note=64, velocity=80, time=0),\n",
       "  Message('note_on', channel=0, note=73, velocity=0, time=455),\n",
       "  Message('note_on', channel=0, note=64, velocity=0, time=0),\n",
       "  Message('note_on', channel=0, note=69, velocity=80, time=25),\n",
       "  Message('note_on', channel=0, note=61, velocity=80, time=0),\n",
       "  Message('note_on', channel=0, note=69, velocity=0, time=455),\n",
       "  Message('note_on', channel=0, note=61, velocity=0, time=0),\n",
       "  Message('note_on', channel=0, note=66, velocity=80, time=25),\n",
       "  Message('note_on', channel=0, note=62, velocity=80, time=0),\n",
       "  Message('note_on', channel=0, note=66, velocity=0, time=455),\n",
       "  Message('note_on', channel=0, note=62, velocity=0, time=0),\n",
       "  MetaMessage('time_signature', numerator=1, denominator=4, clocks_per_click=24, notated_32nd_notes_per_beat=8, time=25),\n",
       "  Message('note_on', channel=0, note=64, velocity=80, time=0),\n",
       "  Message('note_on', channel=0, note=61, velocity=80, time=0),\n",
       "  Message('note_on', channel=0, note=64, velocity=0, time=455),\n",
       "  Message('note_on', channel=0, note=61, velocity=0, time=0),\n",
       "  MetaMessage('time_signature', numerator=4, denominator=4, clocks_per_click=24, notated_32nd_notes_per_beat=8, time=25),\n",
       "  Message('note_on', channel=0, note=64, velocity=80, time=0),\n",
       "  Message('note_on', channel=0, note=61, velocity=80, time=0),\n",
       "  Message('note_on', channel=0, note=64, velocity=0, time=455),\n",
       "  Message('note_on', channel=0, note=61, velocity=0, time=0),\n",
       "  Message('note_on', channel=0, note=69, velocity=80, time=25),\n",
       "  Message('note_on', channel=0, note=61, velocity=80, time=0),\n",
       "  Message('note_on', channel=0, note=69, velocity=0, time=455),\n",
       "  Message('note_on', channel=0, note=61, velocity=0, time=0),\n",
       "  Message('note_on', channel=0, note=69, velocity=80, time=25),\n",
       "  Message('note_on', channel=0, note=61, velocity=80, time=0),\n",
       "  Message('note_on', channel=0, note=69, velocity=0, time=455),\n",
       "  Message('note_on', channel=0, note=61, velocity=0, time=0),\n",
       "  Message('note_on', channel=0, note=71, velocity=80, time=25),\n",
       "  Message('note_on', channel=0, note=62, velocity=80, time=0),\n",
       "  Message('note_on', channel=0, note=71, velocity=0, time=455),\n",
       "  Message('note_on', channel=0, note=62, velocity=0, time=0),\n",
       "  Message('note_on', channel=0, note=73, velocity=80, time=25),\n",
       "  Message('note_on', channel=0, note=64, velocity=80, time=0),\n",
       "  Message('note_on', channel=0, note=73, velocity=0, time=455),\n",
       "  Message('note_on', channel=0, note=64, velocity=0, time=0),\n",
       "  Message('note_on', channel=0, note=73, velocity=80, time=25),\n",
       "  Message('note_on', channel=0, note=64, velocity=80, time=0),\n",
       "  Message('note_on', channel=0, note=73, velocity=0, time=455),\n",
       "  Message('note_on', channel=0, note=64, velocity=0, time=0),\n",
       "  Message('note_on', channel=0, note=73, velocity=80, time=25),\n",
       "  Message('note_on', channel=0, note=64, velocity=80, time=0),\n",
       "  Message('note_on', channel=0, note=73, velocity=0, time=455),\n",
       "  Message('note_on', channel=0, note=64, velocity=0, time=0),\n",
       "  Message('note_on', channel=0, note=74, velocity=80, time=25),\n",
       "  Message('note_on', channel=0, note=66, velocity=80, time=0),\n",
       "  Message('note_on', channel=0, note=74, velocity=0, time=227),\n",
       "  Message('note_on', channel=0, note=66, velocity=0, time=0),\n",
       "  Message('note_on', channel=0, note=73, velocity=80, time=13),\n",
       "  Message('note_on', channel=0, note=64, velocity=80, time=0),\n",
       "  Message('note_on', channel=0, note=73, velocity=0, time=227),\n",
       "  Message('note_on', channel=0, note=64, velocity=0, time=0),\n",
       "  Message('note_on', channel=0, note=71, velocity=80, time=13),\n",
       "  Message('note_on', channel=0, note=62, velocity=80, time=0),\n",
       "  Message('note_on', channel=0, note=71, velocity=0, time=455),\n",
       "  Message('note_on', channel=0, note=62, velocity=0, time=0),\n",
       "  Message('note_on', channel=0, note=71, velocity=80, time=25),\n",
       "  Message('note_on', channel=0, note=62, velocity=80, time=0),\n",
       "  Message('note_on', channel=0, note=71, velocity=0, time=455),\n",
       "  Message('note_on', channel=0, note=62, velocity=0, time=0),\n",
       "  Message('note_on', channel=0, note=71, velocity=80, time=25),\n",
       "  Message('note_on', channel=0, note=62, velocity=80, time=0),\n",
       "  Message('note_on', channel=0, note=71, velocity=0, time=455),\n",
       "  Message('note_on', channel=0, note=62, velocity=0, time=0),\n",
       "  Message('note_on', channel=0, note=69, velocity=80, time=25),\n",
       "  Message('note_on', channel=0, note=61, velocity=80, time=0),\n",
       "  Message('note_on', channel=0, note=69, velocity=0, time=227),\n",
       "  Message('note_on', channel=0, note=61, velocity=0, time=0),\n",
       "  Message('note_on', channel=0, note=71, velocity=80, time=13),\n",
       "  Message('note_on', channel=0, note=62, velocity=80, time=0),\n",
       "  Message('note_on', channel=0, note=71, velocity=0, time=227),\n",
       "  Message('note_on', channel=0, note=62, velocity=0, time=0),\n",
       "  Message('note_on', channel=0, note=73, velocity=80, time=13),\n",
       "  Message('note_on', channel=0, note=64, velocity=80, time=0),\n",
       "  Message('note_on', channel=0, note=73, velocity=0, time=455),\n",
       "  Message('note_on', channel=0, note=64, velocity=0, time=0),\n",
       "  Message('note_on', channel=0, note=71, velocity=80, time=25),\n",
       "  Message('note_on', channel=0, note=62, velocity=80, time=0),\n",
       "  Message('note_on', channel=0, note=71, velocity=0, time=455),\n",
       "  Message('note_on', channel=0, note=62, velocity=0, time=0),\n",
       "  Message('note_on', channel=0, note=69, velocity=80, time=25),\n",
       "  Message('note_on', channel=0, note=61, velocity=80, time=0),\n",
       "  Message('note_on', channel=0, note=69, velocity=0, time=911),\n",
       "  Message('note_on', channel=0, note=61, velocity=0, time=0),\n",
       "  Message('note_on', channel=0, note=74, velocity=80, time=49),\n",
       "  Message('note_on', channel=0, note=66, velocity=80, time=0),\n",
       "  Message('note_on', channel=0, note=74, velocity=0, time=455),\n",
       "  Message('note_on', channel=0, note=66, velocity=0, time=0),\n",
       "  Message('note_on', channel=0, note=74, velocity=80, time=25),\n",
       "  Message('note_on', channel=0, note=66, velocity=80, time=0),\n",
       "  Message('note_on', channel=0, note=74, velocity=0, time=341),\n",
       "  Message('note_on', channel=0, note=66, velocity=0, time=0),\n",
       "  Message('note_on', channel=0, note=74, velocity=80, time=19),\n",
       "  Message('note_on', channel=0, note=66, velocity=80, time=0),\n",
       "  Message('note_on', channel=0, note=74, velocity=0, time=113),\n",
       "  Message('note_on', channel=0, note=66, velocity=0, time=0),\n",
       "  Message('note_on', channel=0, note=74, velocity=80, time=7),\n",
       "  Message('note_on', channel=0, note=66, velocity=80, time=0),\n",
       "  Message('note_on', channel=0, note=74, velocity=0, time=455),\n",
       "  Message('note_on', channel=0, note=66, velocity=0, time=0),\n",
       "  Message('note_on', channel=0, note=74, velocity=80, time=25),\n",
       "  Message('note_on', channel=0, note=66, velocity=80, time=0),\n",
       "  Message('note_on', channel=0, note=74, velocity=0, time=455),\n",
       "  Message('note_on', channel=0, note=66, velocity=0, time=0),\n",
       "  Message('note_on', channel=0, note=74, velocity=80, time=25),\n",
       "  Message('note_on', channel=0, note=66, velocity=80, time=0),\n",
       "  Message('note_on', channel=0, note=74, velocity=0, time=911),\n",
       "  Message('note_on', channel=0, note=66, velocity=0, time=0),\n",
       "  Message('note_on', channel=0, note=74, velocity=80, time=49),\n",
       "  Message('note_on', channel=0, note=66, velocity=80, time=0),\n",
       "  Message('note_on', channel=0, note=74, velocity=0, time=455),\n",
       "  Message('note_on', channel=0, note=66, velocity=0, time=0),\n",
       "  Message('note_on', channel=0, note=73, velocity=80, time=505),\n",
       "  Message('note_on', channel=0, note=64, velocity=80, time=0),\n",
       "  Message('note_on', channel=0, note=73, velocity=0, time=455),\n",
       "  Message('note_on', channel=0, note=64, velocity=0, time=0),\n",
       "  Message('note_on', channel=0, note=73, velocity=80, time=25),\n",
       "  Message('note_on', channel=0, note=64, velocity=80, time=0),\n",
       "  Message('note_on', channel=0, note=73, velocity=0, time=341),\n",
       "  Message('note_on', channel=0, note=64, velocity=0, time=0),\n",
       "  Message('note_on', channel=0, note=73, velocity=80, time=19),\n",
       "  Message('note_on', channel=0, note=64, velocity=80, time=0),\n",
       "  Message('note_on', channel=0, note=73, velocity=0, time=113),\n",
       "  Message('note_on', channel=0, note=64, velocity=0, time=0),\n",
       "  Message('note_on', channel=0, note=73, velocity=80, time=7),\n",
       "  Message('note_on', channel=0, note=64, velocity=80, time=0),\n",
       "  Message('note_on', channel=0, note=73, velocity=0, time=455),\n",
       "  Message('note_on', channel=0, note=64, velocity=0, time=0),\n",
       "  Message('note_on', channel=0, note=73, velocity=80, time=25),\n",
       "  Message('note_on', channel=0, note=64, velocity=80, time=0),\n",
       "  Message('note_on', channel=0, note=73, velocity=0, time=455),\n",
       "  Message('note_on', channel=0, note=64, velocity=0, time=0),\n",
       "  Message('note_on', channel=0, note=73, velocity=80, time=25),\n",
       "  Message('note_on', channel=0, note=64, velocity=80, time=0),\n",
       "  Message('note_on', channel=0, note=73, velocity=0, time=911),\n",
       "  Message('note_on', channel=0, note=64, velocity=0, time=0),\n",
       "  Message('note_on', channel=0, note=76, velocity=80, time=49),\n",
       "  Message('note_on', channel=0, note=69, velocity=80, time=0),\n",
       "  Message('note_on', channel=0, note=76, velocity=0, time=455),\n",
       "  Message('note_on', channel=0, note=69, velocity=0, time=0),\n",
       "  Message('note_on', channel=0, note=76, velocity=80, time=505),\n",
       "  Message('note_on', channel=0, note=76, velocity=0, time=0),\n",
       "  Message('note_on', channel=0, note=76, velocity=80, time=0),\n",
       "  Message('note_on', channel=0, note=76, velocity=0, time=455),\n",
       "  Message('note_on', channel=0, note=76, velocity=80, time=25),\n",
       "  Message('note_on', channel=0, note=76, velocity=0, time=0),\n",
       "  Message('note_on', channel=0, note=76, velocity=80, time=0),\n",
       "  Message('note_on', channel=0, note=76, velocity=0, time=455),\n",
       "  Message('note_on', channel=0, note=73, velocity=80, time=25),\n",
       "  Message('note_on', channel=0, note=73, velocity=0, time=0),\n",
       "  Message('note_on', channel=0, note=73, velocity=80, time=0),\n",
       "  Message('note_on', channel=0, note=73, velocity=0, time=455),\n",
       "  Message('note_on', channel=0, note=73, velocity=80, time=25),\n",
       "  Message('note_on', channel=0, note=73, velocity=0, time=0),\n",
       "  Message('note_on', channel=0, note=73, velocity=80, time=0),\n",
       "  Message('note_on', channel=0, note=73, velocity=0, time=455),\n",
       "  Message('note_on', channel=0, note=69, velocity=80, time=25),\n",
       "  Message('note_on', channel=0, note=69, velocity=0, time=0),\n",
       "  Message('note_on', channel=0, note=69, velocity=80, time=0),\n",
       "  Message('note_on', channel=0, note=69, velocity=0, time=455),\n",
       "  Message('note_on', channel=0, note=69, velocity=80, time=25),\n",
       "  Message('note_on', channel=0, note=69, velocity=0, time=0),\n",
       "  Message('note_on', channel=0, note=69, velocity=80, time=0),\n",
       "  Message('note_on', channel=0, note=69, velocity=0, time=455),\n",
       "  Message('note_on', channel=0, note=64, velocity=80, time=25),\n",
       "  Message('note_on', channel=0, note=64, velocity=0, time=0),\n",
       "  Message('note_on', channel=0, note=64, velocity=80, time=0),\n",
       "  Message('note_on', channel=0, note=64, velocity=0, time=455),\n",
       "  Message('note_on', channel=0, note=64, velocity=80, time=25),\n",
       "  Message('note_on', channel=0, note=64, velocity=0, time=0),\n",
       "  Message('note_on', channel=0, note=64, velocity=80, time=0),\n",
       "  Message('note_on', channel=0, note=64, velocity=0, time=455),\n",
       "  Message('note_on', channel=0, note=69, velocity=80, time=25),\n",
       "  Message('note_on', channel=0, note=64, velocity=80, time=0),\n",
       "  Message('note_on', channel=0, note=69, velocity=0, time=455),\n",
       "  Message('note_on', channel=0, note=64, velocity=0, time=0),\n",
       "  Message('note_on', channel=0, note=71, velocity=80, time=25),\n",
       "  Message('note_on', channel=0, note=64, velocity=80, time=0),\n",
       "  Message('note_on', channel=0, note=71, velocity=0, time=455),\n",
       "  Message('note_on', channel=0, note=64, velocity=0, time=0),\n",
       "  Message('note_on', channel=0, note=73, velocity=80, time=25),\n",
       "  Message('note_on', channel=0, note=64, velocity=80, time=0),\n",
       "  Message('note_on', channel=0, note=73, velocity=0, time=455),\n",
       "  Message('note_on', channel=0, note=64, velocity=0, time=0),\n",
       "  Message('note_on', channel=0, note=74, velocity=80, time=25),\n",
       "  Message('note_on', channel=0, note=66, velocity=80, time=0),\n",
       "  Message('note_on', channel=0, note=74, velocity=0, time=455),\n",
       "  Message('note_on', channel=0, note=66, velocity=0, time=0),\n",
       "  Message('note_on', channel=0, note=73, velocity=80, time=25),\n",
       "  Message('note_on', channel=0, note=69, velocity=80, time=0),\n",
       "  Message('note_on', channel=0, note=73, velocity=0, time=911),\n",
       "  Message('note_on', channel=0, note=69, velocity=0, time=0),\n",
       "  Message('note_on', channel=0, note=71, velocity=80, time=49),\n",
       "  Message('note_on', channel=0, note=68, velocity=80, time=0),\n",
       "  Message('note_on', channel=0, note=71, velocity=0, time=911),\n",
       "  Message('note_on', channel=0, note=68, velocity=0, time=0),\n",
       "  Message('note_on', channel=0, note=73, velocity=80, time=49),\n",
       "  Message('note_on', channel=0, note=69, velocity=80, time=0),\n",
       "  Message('note_on', channel=0, note=73, velocity=0, time=1367),\n",
       "  Message('note_on', channel=0, note=69, velocity=0, time=0),\n",
       "  MetaMessage('set_tempo', tempo=521739, time=552),\n",
       "  Message('note_on', channel=0, note=76, velocity=80, time=1),\n",
       "  Message('note_on', channel=0, note=76, velocity=0, time=0),\n",
       "  Message('note_on', channel=0, note=76, velocity=80, time=0),\n",
       "  Message('note_on', channel=0, note=76, velocity=0, time=455),\n",
       "  Message('note_on', channel=0, note=76, velocity=80, time=25),\n",
       "  Message('note_on', channel=0, note=76, velocity=0, time=0),\n",
       "  Message('note_on', channel=0, note=76, velocity=80, time=0),\n",
       "  Message('note_on', channel=0, note=76, velocity=0, time=455),\n",
       "  Message('note_on', channel=0, note=73, velocity=80, time=25),\n",
       "  Message('note_on', channel=0, note=73, velocity=0, time=0),\n",
       "  Message('note_on', channel=0, note=73, velocity=80, time=0),\n",
       "  Message('note_on', channel=0, note=73, velocity=0, time=455),\n",
       "  Message('note_on', channel=0, note=73, velocity=80, time=25),\n",
       "  Message('note_on', channel=0, note=73, velocity=0, time=0),\n",
       "  Message('note_on', channel=0, note=73, velocity=80, time=0),\n",
       "  Message('note_on', channel=0, note=73, velocity=0, time=455),\n",
       "  Message('note_on', channel=0, note=69, velocity=80, time=25),\n",
       "  Message('note_on', channel=0, note=69, velocity=0, time=0),\n",
       "  Message('note_on', channel=0, note=69, velocity=80, time=0),\n",
       "  Message('note_on', channel=0, note=69, velocity=0, time=455),\n",
       "  Message('note_on', channel=0, note=69, velocity=80, time=25),\n",
       "  Message('note_on', channel=0, note=69, velocity=0, time=0),\n",
       "  Message('note_on', channel=0, note=69, velocity=80, time=0),\n",
       "  Message('note_on', channel=0, note=69, velocity=0, time=455),\n",
       "  Message('note_on', channel=0, note=64, velocity=80, time=25),\n",
       "  Message('note_on', channel=0, note=64, velocity=0, time=0),\n",
       "  Message('note_on', channel=0, note=64, velocity=80, time=0),\n",
       "  Message('note_on', channel=0, note=64, velocity=0, time=455),\n",
       "  Message('note_on', channel=0, note=64, velocity=80, time=25),\n",
       "  Message('note_on', channel=0, note=64, velocity=0, time=0),\n",
       "  Message('note_on', channel=0, note=64, velocity=80, time=0),\n",
       "  Message('note_on', channel=0, note=64, velocity=0, time=455),\n",
       "  Message('note_on', channel=0, note=69, velocity=80, time=25),\n",
       "  Message('note_on', channel=0, note=64, velocity=80, time=0),\n",
       "  Message('note_on', channel=0, note=69, velocity=0, time=455),\n",
       "  Message('note_on', channel=0, note=64, velocity=0, time=0),\n",
       "  Message('note_on', channel=0, note=71, velocity=80, time=25),\n",
       "  Message('note_on', channel=0, note=64, velocity=80, time=0),\n",
       "  Message('note_on', channel=0, note=71, velocity=0, time=455),\n",
       "  Message('note_on', channel=0, note=64, velocity=0, time=0),\n",
       "  Message('note_on', channel=0, note=73, velocity=80, time=25),\n",
       "  Message('note_on', channel=0, note=64, velocity=80, time=0),\n",
       "  Message('note_on', channel=0, note=73, velocity=0, time=455),\n",
       "  Message('note_on', channel=0, note=64, velocity=0, time=0),\n",
       "  Message('note_on', channel=0, note=74, velocity=80, time=25),\n",
       "  Message('note_on', channel=0, note=66, velocity=80, time=0),\n",
       "  Message('note_on', channel=0, note=74, velocity=0, time=455),\n",
       "  Message('note_on', channel=0, note=66, velocity=0, time=0),\n",
       "  Message('note_on', channel=0, note=73, velocity=80, time=25),\n",
       "  Message('note_on', channel=0, note=69, velocity=80, time=0),\n",
       "  Message('note_on', channel=0, note=73, velocity=0, time=911),\n",
       "  Message('note_on', channel=0, note=69, velocity=0, time=0),\n",
       "  Message('note_on', channel=0, note=71, velocity=80, time=49),\n",
       "  Message('note_on', channel=0, note=68, velocity=80, time=0),\n",
       "  Message('note_on', channel=0, note=71, velocity=0, time=911),\n",
       "  Message('note_on', channel=0, note=68, velocity=0, time=0),\n",
       "  Message('note_on', channel=0, note=69, velocity=80, time=49),\n",
       "  Message('note_on', channel=0, note=64, velocity=80, time=0),\n",
       "  Message('note_on', channel=0, note=69, velocity=0, time=1367),\n",
       "  Message('note_on', channel=0, note=64, velocity=0, time=0),\n",
       "  MetaMessage('end_of_track', time=1)])"
      ]
     },
     "execution_count": 43,
     "metadata": {},
     "output_type": "execute_result"
    }
   ],
   "source": [
    "mid = MidiFile('alvinwong/001..mid')\n",
    "mid.tracks[0]"
   ]
  },
  {
   "cell_type": "code",
   "execution_count": 44,
   "metadata": {},
   "outputs": [],
   "source": [
    "add_rest_notes(\"alvinwong_piano_ai/001..mid\", 455)"
   ]
  },
  {
   "cell_type": "code",
   "execution_count": null,
   "metadata": {},
   "outputs": [],
   "source": []
  }
 ],
 "metadata": {
  "kernelspec": {
   "display_name": "hym",
   "language": "python",
   "name": "python3"
  },
  "language_info": {
   "codemirror_mode": {
    "name": "ipython",
    "version": 3
   },
   "file_extension": ".py",
   "mimetype": "text/x-python",
   "name": "python",
   "nbconvert_exporter": "python",
   "pygments_lexer": "ipython3",
   "version": "3.9.19"
  }
 },
 "nbformat": 4,
 "nbformat_minor": 2
}
